<svg data-v-423bf9ae="" xmlns="http://www.w3.org/2000/svg" viewBox="0 0 506 90" class="iconLeftSlogan"><!----><!----><!----><g data-v-423bf9ae="" id="17367965-f53c-4b85-b9c6-4a9e7a871b98" fill="#23073F" transform="matrix(5.804434890511622,0,0,5.804434890511622,169.8877714348544,-16.13632859113752)"><path d="M6.65 4.65L6.65 4.65L6.65 4.65Q6.55 4.68 6.31 4.70L6.31 4.70L6.31 4.70Q6.06 4.73 5.73 4.75L5.73 4.75L5.73 4.75Q5.39 4.77 4.97 4.80L4.97 4.80L4.97 4.80Q4.55 4.83 4.10 4.84L4.10 4.84L4.10 4.84Q4.09 5.31 4.07 5.86L4.07 5.86L4.07 5.86Q4.06 6.41 4.05 6.99L4.05 6.99L4.05 6.99Q4.03 7.56 4.03 8.11L4.03 8.11L4.03 8.11Q4.02 8.67 4.02 9.10L4.02 9.10L4.02 9.10Q4.02 9.65 4.03 10.19L4.03 10.19L4.03 10.19Q4.05 10.74 4.06 11.28L4.06 11.28L4.06 11.28Q4.06 11.47 4.08 11.66L4.08 11.66L4.08 11.66Q4.10 11.84 4.09 12.03L4.09 12.03L4.09 12.03Q4.06 12.21 4.08 12.40L4.08 12.40L4.08 12.40Q4.10 12.59 4.05 12.75L4.05 12.75L4.05 12.75Q4.02 12.77 3.91 12.80L3.91 12.80L3.91 12.80Q3.81 12.84 3.69 12.87L3.69 12.87L3.69 12.87Q3.57 12.89 3.46 12.92L3.46 12.92L3.46 12.92Q3.36 12.95 3.33 12.95L3.33 12.95L3.33 12.95Q3.12 13.03 2.91 12.94L2.91 12.94L2.91 12.94Q2.70 12.84 2.67 12.77L2.67 12.77L2.67 12.77Q2.56 12.53 2.51 11.96L2.51 11.96L2.51 11.96Q2.45 11.40 2.44 10.65L2.44 10.65L2.44 10.65Q2.44 9.90 2.46 9.04L2.46 9.04L2.46 9.04Q2.48 8.19 2.51 7.40L2.51 7.40L2.51 7.40Q2.55 6.61 2.59 5.94L2.59 5.94L2.59 5.94Q2.63 5.28 2.66 4.90L2.66 4.90L2.66 4.90Q1.89 4.93 1.27 4.94L1.27 4.94L1.27 4.94Q0.64 4.96 0.41 4.97L0.41 4.97L0.41 4.97Q0.18 4.79 0.16 4.50L0.16 4.50L0.16 4.50Q0.14 4.21 0.15 3.79L0.15 3.79L0.15 3.79Q0.24 3.68 0.62 3.62L0.62 3.62L0.62 3.62Q0.99 3.56 1.45 3.53L1.45 3.53L1.45 3.53Q1.90 3.50 2.33 3.49L2.33 3.49L2.33 3.49Q2.76 3.49 2.93 3.47L2.93 3.47L2.93 3.47Q3.26 3.46 3.75 3.43L3.75 3.43L3.75 3.43Q4.23 3.40 4.74 3.39L4.74 3.39L4.74 3.39Q5.25 3.37 5.73 3.37L5.73 3.37L5.73 3.37Q6.22 3.37 6.54 3.40L6.54 3.40L6.54 3.40Q6.62 3.47 6.66 3.67L6.66 3.67L6.66 3.67Q6.69 3.86 6.70 4.07L6.70 4.07L6.70 4.07Q6.71 4.28 6.69 4.46L6.69 4.46L6.69 4.46Q6.68 4.63 6.65 4.65ZM12.17 12.56L12.17 12.56L12.17 12.56Q12.07 12.57 11.97 12.58L11.97 12.58L11.97 12.58Q11.87 12.59 11.77 12.61L11.77 12.61L11.77 12.61Q11.58 12.68 11.41 12.66L11.41 12.66L11.41 12.66Q11.24 12.63 11.09 12.56L11.09 12.56L11.09 12.56Q11.10 12.05 11.12 11.68L11.12 11.68L11.12 11.68Q11.13 11.30 11.16 10.79L11.16 10.79L11.16 10.79Q11.17 10.50 11.16 10.19L11.16 10.19L11.16 10.19Q11.16 9.87 11.12 9.58L11.12 9.58L11.12 9.58Q11.00 8.89 10.68 8.67L10.68 8.67L10.68 8.67Q10.35 8.46 9.97 8.55L9.97 8.55L9.97 8.55Q9.60 8.64 9.28 8.95L9.28 8.95L9.28 8.95Q8.96 9.27 8.88 9.63L8.88 9.63L8.88 9.63Q8.71 10.35 8.69 11.07L8.69 11.07L8.69 11.07Q8.68 11.80 8.68 12.52L8.68 12.52L8.68 12.85L8.68 12.85Q8.57 12.85 8.40 12.87L8.40 12.87L8.40 12.87Q8.23 12.88 8.06 12.88L8.06 12.88L8.06 12.88Q7.90 12.88 7.76 12.83L7.76 12.83L7.76 12.83Q7.62 12.78 7.57 12.66L7.57 12.66L7.57 12.66Q7.57 12.57 7.58 12.01L7.58 12.01L7.58 12.01Q7.59 11.45 7.59 10.64L7.59 10.64L7.59 10.64Q7.59 9.83 7.59 8.87L7.59 8.87L7.59 8.87Q7.60 7.91 7.60 7.03L7.60 7.03L7.60 7.03Q7.60 6.27 7.59 5.65L7.59 5.65L7.59 5.65Q7.57 5.03 7.57 4.56L7.57 4.56L7.57 4.56Q7.56 4.10 7.56 3.84L7.56 3.84L7.56 3.84Q7.56 3.57 7.59 3.54L7.59 3.54L7.59 3.54Q7.60 3.51 7.67 3.50L7.67 3.50L7.67 3.50Q7.74 3.49 7.83 3.48L7.83 3.48L7.83 3.48Q7.91 3.47 7.98 3.47L7.98 3.47L7.98 3.47Q8.05 3.47 8.09 3.46L8.09 3.46L8.09 3.46Q8.16 3.40 8.34 3.46L8.34 3.46L8.34 3.46Q8.51 3.51 8.60 3.51L8.60 3.51L8.60 3.51Q8.61 3.58 8.62 3.94L8.62 3.94L8.62 3.94Q8.64 4.30 8.64 4.80L8.64 4.80L8.64 4.80Q8.65 5.31 8.65 5.89L8.65 5.89L8.65 5.89Q8.65 6.48 8.66 6.99L8.66 6.99L8.66 6.99Q8.67 7.50 8.67 7.87L8.67 7.87L8.67 7.87Q8.67 8.23 8.67 8.32L8.67 8.32L8.67 8.32Q9.02 7.91 9.50 7.61L9.50 7.61L9.50 7.61Q9.98 7.31 10.46 7.25L10.46 7.25L10.46 7.25Q10.95 7.20 11.38 7.43L11.38 7.43L11.38 7.43Q11.82 7.67 12.08 8.33L12.08 8.33L12.08 8.33Q12.35 8.99 12.37 9.72L12.37 9.72L12.37 9.72Q12.39 10.46 12.38 11.14L12.38 11.14L12.38 11.14Q12.38 11.30 12.37 11.49L12.37 11.49L12.37 11.49Q12.36 11.68 12.34 11.87L12.34 11.87L12.34 11.87Q12.32 12.07 12.28 12.25L12.28 12.25L12.28 12.25Q12.24 12.43 12.17 12.56ZM14.71 4.93L14.71 4.93L14.71 4.93Q14.98 5.07 15.07 5.31L15.07 5.31L15.07 5.31Q15.16 5.54 15.11 5.79L15.11 5.79L15.11 5.79Q15.05 6.03 14.88 6.22L14.88 6.22L14.88 6.22Q14.70 6.41 14.43 6.45L14.43 6.45L14.43 6.45Q14.06 6.51 13.82 6.32L13.82 6.32L13.82 6.32Q13.59 6.13 13.54 5.86L13.54 5.86L13.54 5.86Q13.50 5.59 13.63 5.30L13.63 5.30L13.63 5.30Q13.76 5.01 14.13 4.86L14.13 4.86L14.13 4.86Q14.32 4.77 14.46 4.82L14.46 4.82L14.46 4.82Q14.60 4.87 14.71 4.93ZM13.76 8.22L13.76 8.22L13.76 8.22Q13.76 8.09 13.78 7.88L13.78 7.88L13.78 7.88Q13.79 7.66 13.80 7.57L13.80 7.57L13.80 7.57Q13.89 7.57 14.11 7.55L14.11 7.55L14.11 7.55Q14.32 7.52 14.41 7.55L14.41 7.55L14.41 7.55Q14.55 7.56 14.69 7.60L14.69 7.60L14.69 7.60Q14.83 7.64 14.94 7.66L14.94 7.66L14.94 7.66Q14.97 7.78 14.98 8.16L14.98 8.16L14.98 8.16Q14.99 8.53 14.99 9.02L14.99 9.02L14.99 9.02Q14.99 9.51 14.99 10.06L14.99 10.06L14.99 10.06Q14.98 10.61 14.97 11.11L14.97 11.11L14.97 11.11Q14.95 11.61 14.94 11.98L14.94 11.98L14.94 11.98Q14.92 12.35 14.91 12.47L14.91 12.47L14.91 12.47Q14.90 12.60 14.72 12.65L14.72 12.65L14.72 12.65Q14.55 12.70 14.34 12.71L14.34 12.71L14.34 12.71Q14.13 12.71 13.93 12.69L13.93 12.69L13.93 12.69Q13.73 12.67 13.68 12.67L13.68 12.67L13.68 12.67Q13.68 12.54 13.69 12.20L13.69 12.20L13.69 12.20Q13.69 11.86 13.71 11.40L13.71 11.40L13.71 11.40Q13.72 10.93 13.73 10.42L13.73 10.42L13.73 10.42Q13.73 9.91 13.75 9.46L13.75 9.46L13.75 9.46Q13.76 9.00 13.76 8.67L13.76 8.67L13.76 8.67Q13.76 8.33 13.76 8.22ZM20.97 12.66L20.97 12.66L20.97 12.66Q20.87 12.67 20.78 12.68L20.78 12.68L20.78 12.68Q20.68 12.70 20.59 12.73L20.59 12.73L20.59 12.73Q20.22 12.84 19.89 12.66L19.89 12.66L19.89 12.66Q19.92 11.66 19.98 10.65L19.98 10.65L19.98 10.65Q19.99 10.36 19.98 10.04L19.98 10.04L19.98 10.04Q19.96 9.73 19.92 9.44L19.92 9.44L19.92 9.44Q19.81 8.75 19.48 8.53L19.48 8.53L19.48 8.53Q19.15 8.32 18.78 8.41L18.78 8.41L18.78 8.41Q18.41 8.50 18.09 8.81L18.09 8.81L18.09 8.81Q17.78 9.13 17.70 9.49L17.70 9.49L17.70 9.49Q17.53 10.21 17.51 10.93L17.51 10.93L17.51 10.93Q17.49 11.66 17.49 12.38L17.49 12.38L17.49 12.71L17.49 12.71Q17.37 12.71 17.21 12.73L17.21 12.73L17.21 12.73Q17.04 12.74 16.87 12.74L16.87 12.74L16.87 12.74Q16.70 12.74 16.57 12.69L16.57 12.69L16.57 12.69Q16.44 12.64 16.38 12.52L16.38 12.52L16.38 12.52Q16.38 12.40 16.38 11.99L16.38 11.99L16.38 11.99Q16.38 11.58 16.37 11.02L16.37 11.02L16.37 11.02Q16.37 10.46 16.37 9.84L16.37 9.84L16.37 9.84Q16.37 9.21 16.37 8.67L16.37 8.67L16.37 8.67Q16.38 8.13 16.40 7.77L16.40 7.77L16.40 7.77Q16.42 7.41 16.46 7.36L16.46 7.36L16.46 7.36Q16.48 7.34 16.55 7.32L16.55 7.32L16.55 7.32Q16.62 7.31 16.70 7.30L16.70 7.30L16.70 7.30Q16.79 7.29 16.86 7.29L16.86 7.29L16.86 7.29Q16.93 7.29 16.97 7.28L16.97 7.28L16.97 7.28Q17.04 7.22 17.15 7.25L17.15 7.25L17.15 7.25Q17.26 7.28 17.33 7.28L17.33 7.28L17.33 7.28Q17.40 7.48 17.44 7.71L17.44 7.71L17.44 7.71Q17.47 7.94 17.47 8.18L17.47 8.18L17.47 8.18Q17.84 7.77 18.32 7.47L18.32 7.47L18.32 7.47Q18.80 7.17 19.29 7.11L19.29 7.11L19.29 7.11Q19.77 7.04 20.20 7.28L20.20 7.28L20.20 7.28Q20.64 7.52 20.90 8.19L20.90 8.19L20.90 8.19Q21.17 8.85 21.19 9.58L21.19 9.58L21.19 9.58Q21.21 10.30 21.20 11.00L21.20 11.00L21.20 11.00Q21.20 11.14 21.19 11.38L21.19 11.38L21.19 11.38Q21.18 11.61 21.15 11.84L21.15 11.84L21.15 11.84Q21.13 12.08 21.08 12.31L21.08 12.31L21.08 12.31Q21.04 12.53 20.97 12.66ZM25.48 9.11L25.48 9.11L25.48 9.11Q25.59 9.39 25.88 9.76L25.88 9.76L25.88 9.76Q26.17 10.12 26.52 10.51L26.52 10.51L26.52 10.51Q26.87 10.91 27.21 11.27L27.21 11.27L27.21 11.27Q27.55 11.63 27.78 11.90L27.78 11.90L27.78 11.90Q27.85 11.98 27.92 12.05L27.92 12.05L27.92 12.05Q28 12.12 28.04 12.21L28.04 12.21L28.04 12.21Q28.01 12.29 27.90 12.37L27.90 12.37L27.90 12.37Q27.79 12.45 27.72 12.49L27.72 12.49L27.72 12.49Q27.65 12.54 27.53 12.61L27.53 12.61L27.53 12.61Q27.41 12.67 27.31 12.67L27.31 12.67L27.31 12.67Q26.94 12.67 26.56 12.33L26.56 12.33L26.56 12.33Q26.19 11.98 25.84 11.54L25.84 11.54L25.84 11.54Q25.48 11.10 25.12 10.68L25.12 10.68L25.12 10.68Q24.77 10.25 24.39 10.09L24.39 10.09L24.39 10.09Q24.15 10.18 23.96 10.34L23.96 10.34L23.96 10.34Q23.77 10.50 23.70 10.67L23.70 10.67L23.74 12.19L23.74 12.19Q23.74 12.42 23.70 12.52L23.70 12.52L23.70 12.52Q23.65 12.61 23.55 12.64L23.55 12.64L23.55 12.64Q23.45 12.67 23.31 12.65L23.31 12.65L23.31 12.65Q23.17 12.63 23.02 12.60L23.02 12.60L23.02 12.60Q22.89 12.57 22.76 12.56L22.76 12.56L22.76 12.56Q22.64 12.54 22.55 12.43L22.55 12.43L22.55 12.43Q22.47 11.90 22.52 11.37L22.52 11.37L22.52 11.37Q22.57 10.84 22.54 10.30L22.54 10.30L22.54 10.30Q22.50 9.38 22.50 8.48L22.50 8.48L22.50 8.48Q22.51 7.57 22.54 6.65L22.54 6.65L22.54 6.65Q22.55 5.84 22.58 5.03L22.58 5.03L22.58 5.03Q22.61 4.23 22.72 3.43L22.72 3.43L22.72 3.43Q22.93 3.37 23.10 3.26L23.10 3.26L23.10 3.26Q23.27 3.26 23.41 3.26L23.41 3.26L23.41 3.26Q23.56 3.26 23.70 3.39L23.70 3.39L23.70 3.39Q23.74 3.51 23.76 3.91L23.76 3.91L23.76 3.91Q23.77 4.31 23.77 4.86L23.77 4.86L23.77 4.86Q23.77 5.40 23.77 6.03L23.77 6.03L23.77 6.03Q23.76 6.66 23.74 7.25L23.74 7.25L23.74 7.25Q23.73 7.83 23.72 8.29L23.72 8.29L23.72 8.29Q23.72 8.76 23.72 9.00L23.72 9.00L23.72 9.00Q23.83 8.97 24.07 8.79L24.07 8.79L24.07 8.79Q24.30 8.60 24.61 8.34L24.61 8.34L24.61 8.34Q24.91 8.08 25.24 7.79L25.24 7.79L25.24 7.79Q25.58 7.50 25.89 7.25L25.89 7.25L25.89 7.25Q26.19 7 26.44 6.83L26.44 6.83L26.44 6.83Q26.68 6.66 26.82 6.66L26.82 6.66L26.82 6.66Q26.87 6.66 26.94 6.72L26.94 6.72L26.94 6.72Q27.02 6.78 27.11 6.86L27.11 6.86L27.11 6.86Q27.20 6.94 27.28 7.06L27.28 7.06L27.28 7.06Q27.36 7.17 27.38 7.29L27.38 7.29L27.38 7.29Q27.36 7.36 27.10 7.62L27.10 7.62L27.10 7.62Q26.85 7.87 26.52 8.17L26.52 8.17L26.52 8.17Q26.19 8.47 25.89 8.74L25.89 8.74L25.89 8.74Q25.59 9.02 25.48 9.11ZM33.67 12.19L33.67 12.19L33.67 12.19Q33.61 12.25 33.50 12.35L33.50 12.35L33.50 12.35Q33.39 12.45 33.32 12.49L33.32 12.49L33.32 12.49Q32.54 12.96 31.67 13.08L31.67 13.08L31.67 13.08Q30.80 13.20 30.06 12.93L30.06 12.93L30.06 12.93Q29.32 12.66 28.83 11.97L28.83 11.97L28.83 11.97Q28.35 11.28 28.35 10.15L28.35 10.15L28.35 10.15Q28.35 9.53 28.56 8.99L28.56 8.99L28.56 8.99Q28.77 8.44 29.15 7.97L29.15 7.97L29.15 7.97Q29.53 7.49 30.09 7.17L30.09 7.17L30.09 7.17Q30.66 6.86 31.26 6.80L31.26 6.80L31.26 6.80Q31.86 6.73 32.42 6.95L32.42 6.95L32.42 6.95Q32.97 7.17 33.33 7.74L33.33 7.74L33.33 7.74Q33.47 7.97 33.56 8.23L33.56 8.23L33.56 8.23Q33.64 8.48 33.66 8.75L33.66 8.75L33.66 8.75Q33.67 8.89 33.68 9.06L33.68 9.06L33.68 9.06Q33.70 9.23 33.67 9.37L33.67 9.37L33.67 9.37Q33.60 9.67 33.50 9.94L33.50 9.94L33.50 9.94Q33.46 10.05 33.25 10.13L33.25 10.13L33.25 10.13Q33.04 10.21 32.79 10.25L32.79 10.25L32.79 10.25Q32.54 10.29 32.30 10.31L32.30 10.31L32.30 10.31Q32.06 10.33 31.96 10.35L31.96 10.35L31.96 10.35Q31.40 10.40 30.85 10.42L30.85 10.42L30.85 10.42Q30.30 10.44 29.74 10.46L29.74 10.46L29.65 10.51L29.65 10.51Q29.61 10.67 29.65 10.82L29.65 10.82L29.65 10.82Q29.69 11.19 29.92 11.41L29.92 11.41L29.92 11.41Q30.14 11.63 30.44 11.76L30.44 11.76L30.44 11.76Q30.73 11.89 31.07 11.94L31.07 11.94L31.07 11.94Q31.40 11.98 31.68 11.98L31.68 11.98L31.68 11.98Q31.91 11.96 32.08 11.91L32.08 11.91L32.08 11.91Q32.26 11.87 32.44 11.77L32.44 11.77L32.44 11.77Q32.62 11.66 32.84 11.47L32.84 11.47L32.84 11.47Q33.05 11.28 33.36 10.96L33.36 10.96L33.36 10.96Q33.39 10.95 33.49 11.07L33.49 11.07L33.49 11.07Q33.59 11.20 33.69 11.36L33.69 11.36L33.69 11.36Q33.80 11.52 33.89 11.67L33.89 11.67L33.89 11.67Q33.98 11.82 33.99 11.84L33.99 11.84L33.99 11.84Q33.96 11.93 33.85 12.03L33.85 12.03L33.85 12.03Q33.74 12.14 33.67 12.19ZM32.58 9.37L32.58 9.37L32.58 9.37Q32.63 9.32 32.65 9.25L32.65 9.25L32.65 9.25Q32.68 9.18 32.68 9.11L32.68 9.11L32.68 9.11Q32.70 8.93 32.65 8.69L32.65 8.69L32.65 8.69Q32.59 8.44 32.49 8.29L32.49 8.29L32.49 8.29Q32.23 7.84 31.78 7.76L31.78 7.76L31.78 7.76Q31.33 7.67 30.88 7.86L30.88 7.86L30.88 7.86Q30.42 8.05 30.07 8.46L30.07 8.46L30.07 8.46Q29.72 8.86 29.67 9.41L29.67 9.41L29.67 9.41Q29.74 9.49 29.85 9.52L29.85 9.52L29.85 9.52Q29.88 9.53 30.07 9.53L30.07 9.53L30.07 9.53Q30.27 9.52 30.55 9.51L30.55 9.51L30.55 9.51Q30.84 9.49 31.18 9.47L31.18 9.47L31.18 9.47Q31.51 9.45 31.81 9.44L31.81 9.44L31.81 9.44Q32.10 9.42 32.32 9.40L32.32 9.40L32.32 9.40Q32.54 9.38 32.58 9.37ZM38.88 7.92L38.88 7.92L38.88 7.92Q38.77 7.94 38.67 7.93L38.67 7.93L38.67 7.93Q38.57 7.92 38.47 7.92L38.47 7.92L38.47 7.92Q38.44 7.91 38.37 7.91L38.37 7.91L38.37 7.91Q38.29 7.91 38.26 7.92L38.26 7.92L38.26 7.92Q37.88 8.02 37.56 8.23L37.56 8.23L37.56 8.23Q37.24 8.44 36.98 8.71L36.98 8.71L36.98 8.71Q36.72 8.99 36.53 9.29L36.53 9.29L36.53 9.29Q36.33 9.59 36.20 9.86L36.20 9.86L36.20 9.86Q36.20 10.09 36.21 10.49L36.21 10.49L36.21 10.49Q36.22 10.88 36.22 11.29L36.22 11.29L36.22 11.29Q36.22 11.70 36.20 12.08L36.20 12.08L36.20 12.08Q36.19 12.45 36.15 12.66L36.15 12.66L36.15 12.66Q36.12 12.78 35.96 12.83L35.96 12.83L35.96 12.83Q35.80 12.88 35.60 12.89L35.60 12.89L35.60 12.89Q35.41 12.89 35.21 12.88L35.21 12.88L35.21 12.88Q35.01 12.87 34.92 12.85L34.92 12.85L34.92 12.85Q34.92 11.49 34.94 10.16L34.94 10.16L34.94 10.16Q34.96 8.82 34.96 7.46L34.96 7.46L34.96 7.46Q34.96 7.31 34.97 7.15L34.97 7.15L34.97 7.15Q34.99 6.99 35 6.82L35 6.82L35 6.82Q35.13 6.82 35.31 6.79L35.31 6.79L35.31 6.79Q35.49 6.76 35.60 6.79L35.60 6.79L35.60 6.79Q35.77 6.83 35.90 6.94L35.90 6.94L35.90 6.94Q36.04 7.04 36.16 7.28L36.16 7.28L36.16 7.28Q36.20 7.46 36.20 7.66L36.20 7.66L36.20 7.66Q36.20 7.85 36.22 8.04L36.22 8.04L36.23 8.04L36.23 8.04Q36.43 7.85 36.65 7.63L36.65 7.63L36.65 7.63Q36.86 7.41 37.17 7.23L37.17 7.23L37.17 7.23Q37.48 7.06 37.90 6.97L37.90 6.97L37.90 6.97Q38.32 6.89 38.92 6.99L38.92 6.99L38.92 6.99Q38.99 7.04 39.00 7.17L39.00 7.17L39.00 7.17Q39.02 7.31 39.00 7.46L39.00 7.46L39.00 7.46Q38.98 7.60 38.94 7.74L38.94 7.74L38.94 7.74Q38.91 7.87 38.88 7.92ZM40.47 12.77L40.47 12.77L40.47 12.77Q40.45 12.36 40.43 11.75L40.43 11.75L40.43 11.75Q40.42 11.14 40.42 10.46L40.42 10.46L40.42 10.46Q40.42 9.77 40.41 9.09L40.41 9.09L40.41 9.09Q40.40 8.40 40.40 7.83L40.40 7.83L40.39 5.43L40.39 5.43Q40.39 5.49 40.38 5.34L40.38 5.34L40.38 5.34Q40.38 5.19 40.37 4.94L40.37 4.94L40.37 4.94Q40.36 4.68 40.38 4.35L40.38 4.35L40.38 4.35Q40.39 4.03 40.42 3.75L40.42 3.75L40.42 3.75Q40.45 3.46 40.51 3.26L40.51 3.26L40.51 3.26Q40.57 3.05 40.67 3.01L40.67 3.01L40.67 3.01Q40.81 2.94 40.89 2.93L40.89 2.93L40.89 2.93Q40.96 2.91 41.13 2.91L41.13 2.91L41.13 2.91Q41.33 2.91 41.55 2.86L41.55 2.86L41.55 2.86Q41.78 2.81 41.97 2.81L41.97 2.81L41.97 2.81Q42.17 2.81 42.37 2.79L42.37 2.79L42.37 2.79Q42.57 2.77 42.77 2.79L42.77 2.79L42.77 2.79Q43.09 2.80 43.44 2.83L43.44 2.83L43.44 2.83Q43.78 2.86 44.07 2.88L44.07 2.88L44.07 2.88Q44.56 2.94 44.97 3.20L44.97 3.20L44.97 3.20Q45.37 3.46 45.70 3.79L45.70 3.79L45.70 3.79Q46.03 4.14 46.26 4.56L46.26 4.56L46.26 4.56Q46.49 4.98 46.56 5.47L46.56 5.47L46.56 5.47Q46.56 5.53 46.58 5.57L46.58 5.57L46.58 5.57Q46.59 5.61 46.61 5.67L46.61 5.67L46.61 5.67Q46.62 5.71 46.61 5.80L46.61 5.80L46.61 5.80Q46.61 5.88 46.60 5.98L46.60 5.98L46.60 5.98Q46.59 6.08 46.58 6.17L46.58 6.17L46.58 6.17Q46.56 6.27 46.56 6.31L46.56 6.31L46.56 6.31Q46.52 6.72 46.33 7.09L46.33 7.09L46.33 7.09Q46.14 7.46 45.86 7.78L45.86 7.78L45.86 7.78Q45.58 8.09 45.24 8.34L45.24 8.34L45.24 8.34Q44.90 8.60 44.55 8.76L44.55 8.76L44.55 8.76Q44.10 8.97 43.67 9.07L43.67 9.07L43.67 9.07Q43.23 9.16 42.87 9.18L42.87 9.18L42.87 9.18Q42.50 9.21 42.23 9.21L42.23 9.21L42.23 9.21Q41.96 9.20 41.83 9.21L41.83 9.21L41.83 9.21Q41.82 9.21 41.82 9.41L41.82 9.41L41.82 9.41Q41.82 9.60 41.83 9.91L41.83 9.91L41.83 9.91Q41.83 10.21 41.85 10.56L41.85 10.56L41.85 10.56Q41.86 10.92 41.87 11.24L41.87 11.24L41.87 11.24Q41.87 11.56 41.89 11.80L41.89 11.80L41.89 11.80Q41.90 12.04 41.92 12.10L41.92 12.10L41.92 12.10Q41.92 12.12 41.92 12.22L41.92 12.22L41.92 12.22Q41.93 12.32 41.93 12.43L41.93 12.43L41.93 12.43Q41.93 12.53 41.92 12.62L41.92 12.62L41.92 12.62Q41.92 12.71 41.90 12.73L41.90 12.73L41.90 12.73Q41.87 12.85 41.69 12.91L41.69 12.91L41.69 12.91Q41.51 12.96 41.27 12.96L41.27 12.96L41.27 12.96Q41.03 12.96 40.80 12.91L40.80 12.91L40.80 12.91Q40.57 12.85 40.47 12.77ZM42.69 4.09L42.67 4.10L42.67 4.10Q42.48 4.10 42.27 4.14L42.27 4.14L42.27 4.14Q42.07 4.17 41.87 4.23L41.87 4.23L41.87 4.23Q41.79 4.45 41.77 4.70L41.77 4.70L41.77 4.70Q41.75 4.96 41.75 5.22L41.75 5.22L41.75 5.22Q41.75 5.49 41.76 5.75L41.76 5.75L41.76 5.75Q41.76 6.02 41.76 6.26L41.76 6.26L41.76 7.18L41.76 7.18Q41.76 7.22 41.76 7.32L41.76 7.32L41.76 7.32Q41.76 7.41 41.76 7.51L41.76 7.51L41.76 7.51Q41.76 7.62 41.76 7.73L41.76 7.73L41.76 7.73Q41.76 7.84 41.78 7.92L41.78 7.92L41.78 7.92Q42.31 7.99 42.74 7.95L42.74 7.95L42.74 7.95Q43.18 7.90 43.53 7.76L43.53 7.76L43.53 7.76Q43.88 7.63 44.16 7.43L44.16 7.43L44.16 7.43Q44.45 7.24 44.70 7.03L44.70 7.03L44.70 7.03Q45.15 6.64 45.24 6.12L45.24 6.12L45.24 6.12Q45.33 5.60 45.14 5.15L45.14 5.15L45.14 5.15Q44.95 4.70 44.51 4.39L44.51 4.39L44.51 4.39Q44.06 4.07 43.43 4.07L43.43 4.07L43.43 4.07Q43.25 4.07 43.06 4.07L43.06 4.07L43.06 4.07Q42.88 4.07 42.69 4.09L42.69 4.09ZM51.41 12.19L51.41 12.19L51.41 12.19Q51.35 12.25 51.24 12.35L51.24 12.35L51.24 12.35Q51.13 12.45 51.06 12.49L51.06 12.49L51.06 12.49Q50.27 12.96 49.41 13.08L49.41 13.08L49.41 13.08Q48.54 13.20 47.80 12.93L47.80 12.93L47.80 12.93Q47.05 12.66 46.57 11.97L46.57 11.97L46.57 11.97Q46.09 11.28 46.09 10.15L46.09 10.15L46.09 10.15Q46.09 9.53 46.30 8.99L46.30 8.99L46.30 8.99Q46.51 8.44 46.89 7.97L46.89 7.97L46.89 7.97Q47.26 7.49 47.83 7.17L47.83 7.17L47.83 7.17Q48.40 6.86 49 6.80L49 6.80L49 6.80Q49.60 6.73 50.16 6.95L50.16 6.95L50.16 6.95Q50.71 7.17 51.07 7.74L51.07 7.74L51.07 7.74Q51.21 7.97 51.30 8.23L51.30 8.23L51.30 8.23Q51.38 8.48 51.39 8.75L51.39 8.75L51.39 8.75Q51.41 8.89 51.42 9.06L51.42 9.06L51.42 9.06Q51.44 9.23 51.41 9.37L51.41 9.37L51.41 9.37Q51.34 9.67 51.24 9.94L51.24 9.94L51.24 9.94Q51.20 10.05 50.99 10.13L50.99 10.13L50.99 10.13Q50.78 10.21 50.53 10.25L50.53 10.25L50.53 10.25Q50.27 10.29 50.04 10.31L50.04 10.31L50.04 10.31Q49.80 10.33 49.70 10.35L49.70 10.35L49.70 10.35Q49.14 10.40 48.59 10.42L48.59 10.42L48.59 10.42Q48.03 10.44 47.47 10.46L47.47 10.46L47.39 10.51L47.39 10.51Q47.35 10.67 47.39 10.82L47.39 10.82L47.39 10.82Q47.43 11.19 47.66 11.41L47.66 11.41L47.66 11.41Q47.88 11.63 48.17 11.76L48.17 11.76L48.17 11.76Q48.47 11.89 48.80 11.94L48.80 11.94L48.80 11.94Q49.14 11.98 49.42 11.98L49.42 11.98L49.42 11.98Q49.64 11.96 49.82 11.91L49.82 11.91L49.82 11.91Q49.99 11.87 50.18 11.77L50.18 11.77L50.18 11.77Q50.36 11.66 50.58 11.47L50.58 11.47L50.58 11.47Q50.79 11.28 51.10 10.96L51.10 10.96L51.10 10.96Q51.13 10.95 51.23 11.07L51.23 11.07L51.23 11.07Q51.32 11.20 51.43 11.36L51.43 11.36L51.43 11.36Q51.53 11.52 51.63 11.67L51.63 11.67L51.63 11.67Q51.72 11.82 51.73 11.84L51.73 11.84L51.73 11.84Q51.70 11.93 51.59 12.03L51.59 12.03L51.59 12.03Q51.48 12.14 51.41 12.19ZM50.32 9.37L50.32 9.37L50.32 9.37Q50.37 9.32 50.39 9.25L50.39 9.25L50.39 9.25Q50.41 9.18 50.41 9.11L50.41 9.11L50.41 9.11Q50.44 8.93 50.39 8.69L50.39 8.69L50.39 8.69Q50.33 8.44 50.23 8.29L50.23 8.29L50.23 8.29Q49.97 7.84 49.52 7.76L49.52 7.76L49.52 7.76Q49.07 7.67 48.62 7.86L48.62 7.86L48.62 7.86Q48.16 8.05 47.81 8.46L47.81 8.46L47.81 8.46Q47.46 8.86 47.40 9.41L47.40 9.41L47.40 9.41Q47.47 9.49 47.59 9.52L47.59 9.52L47.59 9.52Q47.61 9.53 47.81 9.53L47.81 9.53L47.81 9.53Q48.01 9.52 48.29 9.51L48.29 9.51L48.29 9.51Q48.58 9.49 48.92 9.47L48.92 9.47L48.92 9.47Q49.25 9.45 49.55 9.44L49.55 9.44L49.55 9.44Q49.84 9.42 50.06 9.40L50.06 9.40L50.06 9.40Q50.27 9.38 50.32 9.37ZM57.65 12.66L57.65 12.66L57.65 12.66Q57.55 12.67 57.46 12.68L57.46 12.68L57.46 12.68Q57.36 12.70 57.27 12.73L57.27 12.73L57.27 12.73Q56.90 12.84 56.57 12.66L56.57 12.66L56.57 12.66Q56.60 11.66 56.66 10.65L56.66 10.65L56.66 10.65Q56.67 10.36 56.66 10.04L56.66 10.04L56.66 10.04Q56.64 9.73 56.60 9.44L56.60 9.44L56.60 9.44Q56.49 8.75 56.16 8.53L56.16 8.53L56.16 8.53Q55.83 8.32 55.46 8.41L55.46 8.41L55.46 8.41Q55.09 8.50 54.78 8.81L54.78 8.81L54.78 8.81Q54.46 9.13 54.38 9.49L54.38 9.49L54.38 9.49Q54.21 10.21 54.19 10.93L54.19 10.93L54.19 10.93Q54.17 11.66 54.17 12.38L54.17 12.38L54.17 12.71L54.17 12.71Q54.05 12.71 53.89 12.73L53.89 12.73L53.89 12.73Q53.72 12.74 53.55 12.74L53.55 12.74L53.55 12.74Q53.38 12.74 53.25 12.69L53.25 12.69L53.25 12.69Q53.12 12.64 53.06 12.52L53.06 12.52L53.06 12.52Q53.06 12.40 53.06 11.99L53.06 11.99L53.06 11.99Q53.06 11.58 53.05 11.02L53.05 11.02L53.05 11.02Q53.05 10.46 53.05 9.84L53.05 9.84L53.05 9.84Q53.05 9.21 53.05 8.67L53.05 8.67L53.05 8.67Q53.06 8.13 53.08 7.77L53.08 7.77L53.08 7.77Q53.10 7.41 53.14 7.36L53.14 7.36L53.14 7.36Q53.16 7.34 53.23 7.32L53.23 7.32L53.23 7.32Q53.30 7.31 53.38 7.30L53.38 7.30L53.38 7.30Q53.47 7.29 53.54 7.29L53.54 7.29L53.54 7.29Q53.61 7.29 53.65 7.28L53.65 7.28L53.65 7.28Q53.72 7.22 53.83 7.25L53.83 7.25L53.83 7.25Q53.94 7.28 54.01 7.28L54.01 7.28L54.01 7.28Q54.08 7.48 54.12 7.71L54.12 7.71L54.12 7.71Q54.15 7.94 54.15 8.18L54.15 8.18L54.15 8.18Q54.52 7.77 55.00 7.47L55.00 7.47L55.00 7.47Q55.48 7.17 55.97 7.11L55.97 7.11L55.97 7.11Q56.45 7.04 56.88 7.28L56.88 7.28L56.88 7.28Q57.32 7.52 57.58 8.19L57.58 8.19L57.58 8.19Q57.85 8.85 57.87 9.58L57.87 9.58L57.87 9.58Q57.89 10.30 57.88 11.00L57.88 11.00L57.88 11.00Q57.88 11.14 57.87 11.38L57.87 11.38L57.87 11.38Q57.86 11.61 57.83 11.84L57.83 11.84L57.83 11.84Q57.81 12.08 57.76 12.31L57.76 12.31L57.76 12.31Q57.72 12.53 57.65 12.66Z"></path></g><defs data-v-423bf9ae=""><linearGradient data-v-423bf9ae="" gradientTransform="rotate(25)" id="6d5c8bd8-e995-40b9-ab77-2036c6a070d6" x1="0%" y1="0%" x2="100%" y2="0%"><stop data-v-423bf9ae="" offset="0%" style="stop-color: rgb(233, 13, 202); stop-opacity: 1;"></stop><stop data-v-423bf9ae="" offset="100%" style="stop-color: rgb(21, 54, 241); stop-opacity: 1;"></stop></linearGradient></defs><g data-v-423bf9ae="" id="2dfd0328-1338-4a05-a556-b070ad9bced3" transform="matrix(1.876012335122067,0,0,1.876012335122067,-17.71549292094774,-41.87409041665738)" stroke="none" fill="url(#6d5c8bd8-e995-40b9-ab77-2036c6a070d6)"><path d="M83.999 39.287c-4.099-.151-5.581 2.286-5.643 2.39-.011.019-.018.04-.027.06-1.663.365-2.575 1.341-3.036 2.059-3.095-.76-6.528-2.814-9.326-4.491-1.447-.867-2.697-1.616-3.774-2.126-2.703-1.28-9.516-3.519-12.283-4.41l5.024-5.258a.984.984 0 0 0 .004-1.354l-2.984-3.16a.987.987 0 0 0-.712-.31c-.27 0-.526.11-.713.304l-9.156 9.587a.97.97 0 0 0-.417-.054c-5.297.548-13.001 4.287-16.352 7.265-3.216 2.858-9.778 11.692-11.617 15.005-1.33 2.393-.743 3.804-.272 4.431.442.594 1.119.972 1.957 1.134l-1.447 1.542c-.006.007-.01.017-.017.024a.965.965 0 0 0-.124.176c-.005.01-.014.016-.019.026L9.634 68.87a.983.983 0 0 0 1.333 1.316l7.021-3.687a.992.992 0 0 0 .292-.232l2.359-2.766c.13 1.383.465 2.921 1.283 3.723.458.45 1.03.663 1.654.614 1.583-.122 3.154-1.603 4.248-2.905.805 1.783 2.333 4.305 4.362 3.752.075-.021.142-.053.214-.078.648.704 2.008 1.859 3.56 1.279 2.063-.774 2.49-3.326 2.557-5.462 1.368.121 2.505.213 3.182.255.896.056 2.611.355 4.596.705 4.174.73 9.367 1.641 12.739 1.401 3.074-.221 7.251-.996 10.938-1.682 1.697-.315 3.318-.616 4.609-.819a4.49 4.49 0 0 0 .924 2.217c.973 1.229 2.574 1.927 4.748 2.085.699 1.248 2.679 1.928 4.666 2.054 2.624.166 4.337-.657 4.472-2.15.167-1.843.487-24.765.487-26.094-.001-2.892-2.988-3.002-5.879-3.109zM52.376 26.906c.431-.453.836.005.386.444-.279.271-7.408 7.795-7.717 8.038-.308.243-.506.1-.551.057-.047-.046-.074-.215.114-.433.189-.22 7.338-7.652 7.768-8.106zM17.911 53.912l-1.185-1.316c2.684-3.888 6.9-9.307 9.183-11.336 2.682-2.385 8.639-5.407 13.34-6.458l-5.134 5.375c-.185.194-.993-.157-.993-.157a.983.983 0 0 0-1.686 1.013l.326.543s.061 1.004-.104 1.177l-5.123 5.364c-.2.208-1.056.148-1.056.148l-.447-.399a.983.983 0 0 0-1.305 1.471l.465.413s-.077.991-.152 1.103c-1.878 2.808-5.311 7.07-7.247 7.499-.757.169 1.1-3.103 1.1-3.103a.986.986 0 0 0 .018-1.337zm-4.063 3.735c-.395-.468.575-2.802.575-2.802s.86-1.364 1.292-1.042c.432.323.538 1.149-.036 1.832-.574.684-1.436 2.48-1.831 2.012zm-.594 8.629c-.375-.009-.293-.419-.293-.419-.008-.009-.019-.016-.024-.025.215-.422.187-.491.446-1.001.215-.323.686-.372.686-.372s.829.484.753.734c-.075.249-1.194 1.092-1.568 1.083zm3.001-2.817l-.938-.914 2.218-2.362c3.337-1.076 7.647-7.487 8.318-8.509l24.822-25.988c.278-.292.673-.465.896-.231.329.415-.188 1.014-.188 1.014l-26.427 27.83a6.189 6.189 0 0 0-1.635 1.096c-.612.579-1.017 1.234-1.206 1.895l-5.86 6.169zm25.099-16.041c-.939.297-1.969.438-2.926.496-1.208.073-1.426-1.043.206-2.062 1.144-.715 2.345-1.44 3.116-1.841.327-.169.639.15.606.384a34.8 34.8 0 0 0-.211 1.812c-.029.315-.545 1.134-.791 1.211zm.603 2.286c-.004.14-.008.276-.01.412a2.773 2.773 0 0 1-.372.158c-.585.208-1.422.365-2.05.48l-1.139.223c-.753.169-2.235-.746-.813-.905 1.176-.13 2.555-.311 3.704-.591.241-.06.682.086.68.223zm-.095-11.512c-.047-.046-.074-.214.114-.433.189-.219.783-.789 1.213-1.243.43-.452.835.005.385.444-.28.271-.852.933-1.162 1.176-.308.243-.505.1-.55.056zM26.145 63.873c-.915 1.049-1.956 1.948-2.72 2.006-.04.003-.064.006-.126-.057-.358-.351-.573-1.285-.681-2.319-.08-.751.861-1.646 1.324-1.324.462.323 1 .566 1.603.719.277.069.812.731.6.975zm3.536-5.177c-.058.315-3.771 3.572-5.343 1.043-.341-.549-.381-1.2-.381-1.658 0-.281.188-.762.717-1.263.678-.642 1.642-1.065 2.701-1.216.544.224 2.647 1.213 2.306 3.094zm1.988 8.092c-.353.098-1.171-.895-1.883-2.32-.155-.312 3.34.27 3.179.653-.351.833-.806 1.534-1.296 1.667zm3.6 1.258c-.363.136-.919-.264-1.322-.666a7.09 7.09 0 0 0 .818-1.449c.281-.653 1.718-.505 1.64-.024-.196 1.197-.578 1.929-1.136 2.139zm40.497-16.798c-.677 10.719-11.65 12.235-17.118 10.869-5.587-1.396-12.984.033-18.406.453-3.652.282-5.76-.503-7.099-.645-1.085-.115-1.738-1.725-1.529-2.878.255-1.399-.203-2.534-.915-3.404 3.797.136 9.453.232 10.983.081l4.926-.529a.98.98 0 0 0 .856-1.162c-.22-1.152-.554-4.461.523-5.897a.981.981 0 0 0-.197-1.375.98.98 0 0 0-1.375.197c-.911 1.215-1.148 2.993-1.148 4.511 0 .714-.35 1.931-.617 1.959-.226.023-.724-.453-.73-.79a72.7 72.7 0 0 1-.014-1.77.969.969 0 0 0 .006-.661c.045-3.078.317-7.162 1.359-9.244a.983.983 0 1 0-1.757-.879 7.625 7.625 0 0 0-.365.865c-.073.203-.919-.141-.919-.141l6.171-6.461c1.604.513 10.014 3.215 12.952 4.606.989.469 2.26 1.23 3.605 2.036 2.396 1.434 5.236 3.127 8.052 4.146.774.279 2.637 2.184 2.702 3.545.037.774.111 1.647.054 2.568zm6.035 3.175c0 2.911-.155 5.735-.406 7.944-.056.493-.643.309-.627-.042.114-2.59.212-7.139-.548-7.146-.906-.01-.721 4.383-.92 7.146-.018.248-.327.701-1.203.526-.819-.164-1.042-1.075-.97-1.496.261-1.527.473-3.913.578-7.647.106-3.884-.04-6.202-.302-7.594-.117-.612.019-1.862.405-2.092.447-.267 1.068-.469 1.924-.469.108 0 .259.026.457.223 1.069 1.073 1.613 4.53 1.613 10.279.001.038-.001.368-.001.368zm5.787 8.598c-.009.429-.014 1.032-.315 1.02-.108.146-.371-.207-.359-.549.121-3.578.313-10.972-.811-10.878-1.222.101-.826 6.994-1.167 10.822-.032.352-.599.522-.885.465-.584-.117-.751-.72-.683-1.314.341-2.934.399-6.256.399-8.163v-.25c.006-4.461-.238-9.833-2.188-11.785a2.843 2.843 0 0 0-.657-.482c.607-.364 1.568-.708 3.004-.655 3.984.147 3.984.544 3.984 1.146.001 1.48-.171 13.453-.322 20.623z"></path></g><!----><g data-v-423bf9ae="" id="b145f508-dbdc-44c9-a486-e73417b00fca" fill="#23073F" transform="matrix(0.7193340361235352,0,0,0.7193340361235352,170.21396469369185,57.913932120271724)"><path d="M0.73 5.77C0.73 9.07 5.71 8.20 5.71 10.65C5.71 11.59 4.87 12.31 3.89 12.31C3.07 12.31 1.47 11.83 1.44 11.47L1.36 10.15C1.34 9.97 1.27 9.91 1.09 9.91L1.02 9.91C0.81 9.91 0.81 10.00 0.81 10.12C0.81 10.32 0.92 11.66 0.95 12.17C0.97 12.38 2.23 12.85 3.77 12.85C5.33 12.85 6.94 11.87 6.94 10.11C6.94 6.79 1.97 7.87 1.97 5.32C1.97 4.31 2.76 3.56 3.79 3.56C4.82 3.56 5.91 4.58 5.91 4.89C5.91 5.01 5.87 5.73 5.87 5.78C5.87 5.92 5.91 5.99 6.17 5.99C6.41 5.99 6.43 5.94 6.43 5.75C6.43 5.04 6.51 3.68 6.51 3.53C6.51 3.30 6.47 3.29 6.20 3.29C5.98 3.29 5.96 3.32 5.95 3.53C5.95 3.61 5.94 3.78 5.89 3.78C5.84 3.78 5.75 3.74 5.68 3.68C4.89 3.14 4.27 3.08 3.77 3.08C2.24 3.08 0.73 4.17 0.73 5.77ZM14.98 7.91C14.98 11.31 17.35 12.87 19.94 12.87C21.71 12.87 23.49 11.90 23.53 11.59C23.70 10.29 23.76 9.70 23.76 9.66C23.76 9.56 23.72 9.52 23.55 9.51C23.49 9.51 23.44 9.49 23.39 9.49C23.28 9.49 23.23 9.53 23.20 9.70L23.02 11.33C23.00 11.45 21.90 12.24 20.33 12.24C18.20 12.24 16.49 10.29 16.49 7.94C16.49 5.42 17.92 3.54 19.92 3.54C21.77 3.54 23.11 5.01 23.11 5.17C23.11 5.29 23.06 6.40 23.06 6.45C23.06 6.59 23.10 6.64 23.37 6.64C23.56 6.64 23.63 6.62 23.63 6.44C23.63 5.73 23.69 3.92 23.69 3.67C23.69 3.47 23.58 3.44 23.37 3.44C23.14 3.44 23.11 3.50 23.11 3.67L23.11 4.05C23.11 4.16 23.07 4.16 22.95 4.06C22.67 3.86 21.69 3.04 20.02 3.04C17.18 3.04 14.98 4.96 14.98 7.91ZM32.14 3.51C32.14 3.72 32.21 3.79 32.41 3.79L33.22 3.77C33.32 3.77 33.36 6.61 33.36 8.55L33.36 10.42C33.36 11.30 33.35 12.18 33.31 12.18L32.70 12.18C32.48 12.18 32.41 12.19 32.41 12.39C32.41 12.63 32.45 12.68 32.65 12.68C32.77 12.68 33.60 12.64 34.02 12.64C34.44 12.64 35.21 12.68 35.53 12.68C35.70 12.68 35.73 12.61 35.73 12.40C35.73 12.24 35.70 12.18 35.53 12.18L34.72 12.18C34.65 12.18 34.57 9.18 34.57 8.37C34.57 8.30 34.57 8.26 34.68 8.26C35.07 8.26 35.67 8.27 35.97 8.27C38.21 8.32 38.35 10.00 38.35 11.68L38.35 12.49C38.35 12.61 38.40 12.64 38.50 12.64C38.50 12.64 39.94 12.68 40.42 12.68C40.59 12.68 40.64 12.64 40.64 12.53C40.64 12.24 40.59 12.18 40.43 12.18L39.79 12.18C39.69 12.18 39.66 12.14 39.63 11.31C39.55 8.99 38.18 8.34 37.27 8.05C37.13 8.01 37.16 8.01 37.27 7.95C37.86 7.69 39.17 6.94 39.17 5.63C39.17 3.63 37.48 3.21 36.08 3.21C35.76 3.21 34.47 3.29 34.05 3.29C33.63 3.29 32.65 3.26 32.42 3.26C32.24 3.26 32.14 3.28 32.14 3.51ZM34.57 7.80L34.57 4.40C34.57 4.05 34.59 3.68 34.64 3.68C34.85 3.65 35.13 3.65 35.35 3.65C36.65 3.65 37.90 4.47 37.90 5.82C37.90 6.99 37.35 7.57 36.69 7.88C36.65 7.90 36.61 7.90 36.54 7.90C36.06 7.88 35.35 7.88 34.75 7.87C34.58 7.87 34.57 7.85 34.57 7.80ZM47.98 12.39C47.98 12.63 48.02 12.68 48.22 12.68C48.54 12.68 49.29 12.64 50.01 12.64C50.67 12.64 51.46 12.68 51.69 12.68C51.86 12.68 51.88 12.61 51.88 12.40C51.88 12.24 51.86 12.18 51.69 12.18L50.72 12.18C50.62 12.18 50.60 9.55 50.60 7.76L50.60 5.87C50.60 5.14 50.62 3.70 50.72 3.70L51.63 3.70C51.86 3.70 51.88 3.68 51.88 3.49C51.88 3.25 51.86 3.19 51.69 3.19C51.37 3.19 50.69 3.23 50.04 3.23C49.22 3.23 48.51 3.19 48.29 3.19C48.10 3.19 48.03 3.21 48.03 3.44C48.03 3.68 48.12 3.70 48.29 3.70L49.21 3.70C49.25 3.70 49.32 4.79 49.32 5.71L49.32 7.08C49.32 8.92 49.31 12.18 49.20 12.18L48.27 12.18C48.05 12.18 47.98 12.19 47.98 12.39ZM59.78 3.51C59.78 3.75 59.82 3.79 60.03 3.79L60.96 3.77C61.01 3.77 61.01 4.47 61.01 5.24L61.01 5.96C61.01 7.70 61.00 12.18 60.89 12.18L60.21 12.18C59.99 12.18 59.92 12.19 59.92 12.39C59.92 12.63 59.93 12.68 60.13 12.68C60.26 12.68 61.24 12.64 61.66 12.64C62.08 12.64 62.94 12.68 63.27 12.68C63.43 12.68 63.46 12.61 63.46 12.40C63.46 12.24 63.43 12.18 63.27 12.18L62.27 12.18C62.23 12.18 62.22 10.60 62.22 9.58L62.22 8.65C62.22 8.57 62.22 8.54 62.31 8.54C62.71 8.54 63.03 8.58 63.53 8.58C65.52 8.58 66.92 7.83 66.92 6.01C66.92 4.09 65.44 3.22 63.52 3.22C63.20 3.22 62.10 3.29 61.68 3.29C61.45 3.29 60.26 3.26 60.03 3.26C59.85 3.26 59.78 3.28 59.78 3.51ZM62.23 8.05L62.23 4.40C62.23 4.05 62.24 3.70 62.29 3.68C62.41 3.67 62.58 3.67 62.72 3.67C64.37 3.67 65.63 4.47 65.63 5.80C65.63 7.57 64.30 8.19 62.72 8.19C62.47 8.19 62.23 8.16 62.23 8.05ZM74.41 5.01C74.41 5.17 74.59 5.17 74.72 5.17C74.87 5.17 74.91 5.15 74.93 4.97L75.04 3.89C75.05 3.81 75.60 3.75 76.36 3.75L78.34 3.75C78.40 3.75 78.43 4.35 78.43 4.97C78.43 6.43 78.37 12.18 78.25 12.18L77.38 12.18C77.15 12.18 77.11 12.19 77.11 12.39C77.11 12.63 77.13 12.68 77.32 12.68C77.64 12.68 78.62 12.64 79.04 12.64C79.46 12.64 80.40 12.68 80.72 12.68C80.89 12.68 80.92 12.61 80.92 12.40C80.92 12.24 80.89 12.18 80.72 12.18L79.73 12.18C79.70 12.18 79.70 11.76 79.70 11.31C79.70 9.56 79.79 5.96 79.79 5.92C79.80 5.18 79.80 3.75 79.90 3.75L81.51 3.75C82.22 3.75 83.05 3.78 83.05 3.85C83.05 3.99 83.01 4.90 83.01 4.97C83.01 5.12 83.08 5.17 83.26 5.17C83.45 5.17 83.52 5.17 83.52 5.03C83.52 3.93 83.58 3.40 83.58 3.14C83.58 2.94 83.50 2.94 83.30 2.94C83.15 2.94 83.09 2.98 83.08 3.16C83.08 3.23 82.43 3.28 81.59 3.28L76.59 3.28C75.94 3.28 75.12 3.28 75.12 3.21L75.12 3.07C75.12 2.94 75.00 2.94 74.90 2.94C74.68 2.94 74.65 3.00 74.63 3.19C74.58 3.89 74.41 4.97 74.41 5.01ZM91.20 12.39C91.20 12.63 91.24 12.68 91.43 12.68C91.76 12.68 92.51 12.64 93.23 12.64C93.88 12.64 94.68 12.68 94.91 12.68C95.07 12.68 95.10 12.61 95.10 12.40C95.10 12.24 95.07 12.18 94.91 12.18L93.94 12.18C93.84 12.18 93.81 9.55 93.81 7.76L93.81 5.87C93.81 5.14 93.84 3.70 93.94 3.70L94.85 3.70C95.07 3.70 95.10 3.68 95.10 3.49C95.10 3.25 95.07 3.19 94.91 3.19C94.58 3.19 93.91 3.23 93.25 3.23C92.44 3.23 91.73 3.19 91.50 3.19C91.32 3.19 91.25 3.21 91.25 3.44C91.25 3.68 91.34 3.70 91.50 3.70L92.43 3.70C92.47 3.70 92.54 4.79 92.54 5.71L92.54 7.08C92.54 8.92 92.53 12.18 92.41 12.18L91.49 12.18C91.27 12.18 91.20 12.19 91.20 12.39ZM103.00 12.39C103.00 12.63 103.01 12.68 103.21 12.68C103.39 12.68 103.77 12.64 104.38 12.64C105.01 12.64 105.57 12.68 105.90 12.68C106.06 12.68 106.06 12.61 106.06 12.40C106.06 12.24 106.06 12.18 105.90 12.18L104.69 12.18C104.65 12.18 104.64 11.54 104.64 10.79C104.64 9.46 104.65 7.48 104.65 5.99C104.65 5.25 104.65 4.84 104.66 4.28C104.66 4.02 104.73 4.14 104.86 4.28L111.75 12.66C111.83 12.75 111.92 12.89 112.03 12.89C112.14 12.89 112.21 12.77 112.21 12.54C112.21 12.39 112.38 6.65 112.39 4.48C112.39 4.06 112.42 3.70 112.45 3.70L113.08 3.70C113.30 3.70 113.36 3.68 113.36 3.49C113.36 3.25 113.36 3.19 113.16 3.19C112.97 3.19 112.53 3.23 111.97 3.23C111.36 3.23 110.56 3.19 110.46 3.19C110.29 3.19 110.29 3.26 110.29 3.47C110.29 3.64 110.29 3.70 110.46 3.70L111.76 3.70C111.78 3.70 111.78 4.33 111.78 4.44C111.78 5.85 111.80 8.33 111.80 9.70L111.80 10.29C111.80 10.57 111.79 10.65 111.57 10.37L105.88 3.39C105.77 3.25 105.74 3.19 105.57 3.19C105.49 3.19 105.11 3.23 104.80 3.23C104.51 3.23 103.43 3.19 103.24 3.19C103.07 3.19 103.04 3.26 103.04 3.47C103.04 3.64 103.07 3.70 103.24 3.70L104.15 3.70C104.15 4.17 104.10 8.53 104.03 10.79C104.01 11.69 104.02 12.18 103.91 12.18L103.26 12.18C103.04 12.18 103.00 12.19 103.00 12.39ZM121.46 7.91C121.46 11.40 123.83 12.89 126.42 12.89C128.31 12.89 130.31 11.89 130.31 11.58C130.31 11.12 130.33 10.68 130.33 10.33C130.33 9.81 130.34 9.56 130.47 9.56L130.90 9.56C131.04 9.56 131.05 9.39 131.05 9.30C131.05 9.18 131.04 9.06 130.90 9.06C130.68 9.06 130.31 9.10 129.64 9.10C129.19 9.10 128.45 9.07 127.76 9.06C127.62 9.06 127.62 9.24 127.62 9.35C127.62 9.45 127.65 9.56 127.78 9.56L129.00 9.56C129.04 9.56 129.09 9.87 129.09 10.33C129.09 10.82 129.08 11.41 129.05 11.65C129.04 11.76 128.39 12.39 126.81 12.39C124.57 12.39 122.98 10.29 122.98 7.94C122.98 5.42 124.53 3.54 126.53 3.54C128.42 3.54 129.60 4.87 129.60 5.03C129.60 5.15 129.54 6.12 129.54 6.17C129.54 6.31 129.58 6.36 129.85 6.36C130.05 6.36 130.12 6.33 130.12 6.15C130.12 5.43 130.16 3.75 130.16 3.56C130.16 3.36 130.06 3.33 129.85 3.33C129.63 3.33 129.60 3.39 129.60 3.56L129.60 3.91C129.60 3.99 129.56 4.02 129.43 3.92C129.15 3.72 128.16 3.08 126.59 3.08C123.75 3.08 121.46 4.79 121.46 7.91ZM148.89 3.51C148.89 3.75 148.93 3.79 149.14 3.79L150.07 3.77C150.12 3.77 150.12 4.47 150.12 5.24L150.12 5.96C150.12 7.70 150.11 12.18 150.00 12.18L149.32 12.18C149.10 12.18 149.03 12.19 149.03 12.39C149.03 12.63 149.04 12.68 149.24 12.68C149.37 12.68 150.35 12.64 150.77 12.64C151.19 12.64 152.05 12.68 152.38 12.68C152.54 12.68 152.57 12.61 152.57 12.40C152.57 12.24 152.54 12.18 152.38 12.18L151.38 12.18C151.34 12.18 151.33 10.60 151.33 9.58L151.33 8.65C151.33 8.57 151.33 8.54 151.42 8.54C151.82 8.54 152.14 8.58 152.64 8.58C154.63 8.58 156.03 7.83 156.03 6.01C156.03 4.09 154.55 3.22 152.63 3.22C152.31 3.22 151.21 3.29 150.79 3.29C150.56 3.29 149.37 3.26 149.14 3.26C148.96 3.26 148.89 3.28 148.89 3.51ZM151.34 8.05L151.34 4.40C151.34 4.05 151.35 3.70 151.40 3.68C151.52 3.67 151.69 3.67 151.83 3.67C153.48 3.67 154.74 4.47 154.74 5.80C154.74 7.57 153.41 8.19 151.83 8.19C151.58 8.19 151.34 8.16 151.34 8.05ZM163.79 3.51C163.79 3.72 163.86 3.79 164.05 3.79L164.86 3.77C164.96 3.77 165.00 6.61 165.00 8.55L165.00 10.42C165.00 11.30 164.99 12.18 164.95 12.18L164.35 12.18C164.12 12.18 164.05 12.19 164.05 12.39C164.05 12.63 164.09 12.68 164.29 12.68C164.42 12.68 165.24 12.64 165.66 12.64C166.08 12.64 166.85 12.68 167.17 12.68C167.34 12.68 167.37 12.61 167.37 12.40C167.37 12.24 167.34 12.18 167.17 12.18L166.36 12.18C166.29 12.18 166.21 9.18 166.21 8.37C166.21 8.30 166.21 8.26 166.32 8.26C166.71 8.26 167.31 8.27 167.61 8.27C169.85 8.32 169.99 10.00 169.99 11.68L169.99 12.49C169.99 12.61 170.04 12.64 170.14 12.64C170.14 12.64 171.58 12.68 172.06 12.68C172.23 12.68 172.28 12.64 172.28 12.53C172.28 12.24 172.23 12.18 172.07 12.18L171.43 12.18C171.33 12.18 171.30 12.14 171.28 11.31C171.19 8.99 169.82 8.34 168.91 8.05C168.77 8.01 168.80 8.01 168.91 7.95C169.50 7.69 170.81 6.94 170.81 5.63C170.81 3.63 169.12 3.21 167.72 3.21C167.40 3.21 166.11 3.29 165.69 3.29C165.27 3.29 164.29 3.26 164.07 3.26C163.88 3.26 163.79 3.28 163.79 3.51ZM166.21 7.80L166.21 4.40C166.21 4.05 166.24 3.68 166.28 3.68C166.49 3.65 166.77 3.65 166.99 3.65C168.29 3.65 169.54 4.47 169.54 5.82C169.54 6.99 168.99 7.57 168.34 7.88C168.29 7.90 168.25 7.90 168.18 7.90C167.71 7.88 166.99 7.88 166.39 7.87C166.22 7.87 166.21 7.85 166.21 7.80ZM179.69 8.15C179.69 11.17 182.03 12.80 184.28 12.80C187.07 12.80 189.04 10.89 189.04 8.06C189.04 5.33 187.29 3.11 184.49 3.11C181.89 3.11 179.69 5.10 179.69 8.15ZM181.09 7.77C181.09 5.64 182.38 3.58 184.35 3.58C186.59 3.58 187.67 5.81 187.67 7.94C187.67 10.08 186.56 12.32 184.30 12.32C182.31 12.32 181.09 10.28 181.09 7.77ZM197.15 3.49C197.15 3.72 197.26 3.74 197.43 3.74L198.04 3.74C198.10 3.74 198.17 4.79 198.17 5.71C198.17 5.80 198.23 8.27 198.23 9.83L198.23 11.17C198.23 11.84 198.21 12.18 198.16 12.18L197.57 12.18C197.34 12.18 197.27 12.19 197.27 12.39C197.27 12.63 197.29 12.68 197.48 12.68C197.69 12.68 198.53 12.64 198.95 12.64C199.37 12.64 200.31 12.68 200.63 12.68C200.80 12.68 200.83 12.61 200.83 12.40C200.83 12.24 200.80 12.18 200.63 12.18L199.50 12.18C199.44 12.18 199.46 10.16 199.42 8.33C199.42 8.08 199.40 8.09 199.60 8.09L202.02 8.09C202.72 8.09 202.75 8.19 202.75 8.30L202.75 9.16C202.75 9.28 202.93 9.28 203.04 9.28C203.14 9.28 203.27 9.28 203.27 9.17C203.27 8.99 203.24 8.33 203.24 7.83C203.24 7.32 203.27 6.82 203.27 6.69C203.27 6.58 203.15 6.58 203.03 6.58C202.86 6.58 202.75 6.58 202.75 6.71L202.75 7.45C202.75 7.62 202.30 7.63 202.02 7.63L199.60 7.63C199.39 7.63 199.42 7.66 199.42 7.45C199.40 7.13 199.39 6.15 199.39 5.26C199.39 4.52 199.40 3.71 199.47 3.71C200.87 3.71 203.06 3.75 203.35 3.79C203.35 3.96 203.31 4.82 203.31 4.89C203.31 5.04 203.38 5.10 203.56 5.10C203.76 5.10 203.83 5.08 203.83 4.94C203.83 3.85 203.88 3.36 203.88 3.09C203.88 2.93 203.80 2.90 203.60 2.90C203.48 2.90 203.41 2.90 203.38 3.11C203.36 3.25 203.43 3.25 202.48 3.25C201.88 3.25 199.60 3.29 198.86 3.29C198.37 3.29 197.43 3.25 197.33 3.25C197.20 3.25 197.15 3.30 197.15 3.49ZM211.85 12.39C211.85 12.63 211.88 12.68 212.07 12.68C212.39 12.68 213.36 12.64 213.78 12.64C214.20 12.64 218.71 12.68 219.03 12.68C219.16 12.68 219.31 12.66 219.31 12.49C219.31 12.07 219.35 11.23 219.35 10.53C219.35 10.39 219.20 10.39 219.07 10.39C218.96 10.39 218.83 10.39 218.83 10.51C218.82 11.06 218.82 11.41 218.79 11.76C218.76 12.01 218.76 12.04 218.67 12.04C218.51 12.04 215.88 12.08 214.38 12.08C214.31 12.08 214.27 10.11 214.23 8.26C214.23 8.06 214.27 8.09 214.41 8.09L216.69 8.09C217.39 8.09 217.42 8.20 217.42 8.30L217.42 9.00C217.42 9.14 217.60 9.14 217.71 9.14C217.81 9.14 217.94 9.13 217.94 9.02C217.94 8.83 217.91 8.33 217.91 7.83C217.91 7.32 217.94 6.83 217.94 6.71C217.94 6.59 217.80 6.58 217.70 6.58C217.59 6.58 217.42 6.59 217.42 6.72L217.42 7.45C217.42 7.62 216.97 7.63 216.69 7.63L214.35 7.63C214.24 7.63 214.23 7.63 214.23 7.45C214.21 6.75 214.20 6.06 214.20 5.46C214.20 5.12 214.20 3.71 214.28 3.71C215.52 3.71 218.02 3.75 218.02 3.81C218.02 3.99 217.98 4.83 217.98 4.89C217.98 5.04 218.05 5.10 218.23 5.10C218.43 5.10 218.50 5.08 218.50 4.94C218.50 3.85 218.55 3.36 218.55 3.09C218.55 2.91 218.47 2.90 218.27 2.90C218.08 2.90 218.08 2.95 218.05 3.11C218.04 3.25 218.11 3.25 217.20 3.25C216.58 3.25 214.44 3.29 213.67 3.29C213.18 3.29 212.24 3.25 212.14 3.25C212.02 3.25 211.96 3.30 211.96 3.49C211.96 3.72 212.03 3.74 212.20 3.74L212.86 3.74C212.91 3.74 212.98 4.79 212.98 5.71C212.98 5.80 213.04 8.27 213.04 9.83L213.04 11.17C213.04 11.84 213.01 12.18 212.98 12.18L212.13 12.18C211.90 12.18 211.85 12.21 211.85 12.39ZM227.53 5.77C227.53 9.07 232.51 8.20 232.51 10.65C232.51 11.59 231.67 12.31 230.69 12.31C229.87 12.31 228.27 11.83 228.24 11.47L228.16 10.15C228.14 9.97 228.07 9.91 227.89 9.91L227.82 9.91C227.61 9.91 227.61 10.00 227.61 10.12C227.61 10.32 227.72 11.66 227.75 12.17C227.77 12.38 229.03 12.85 230.57 12.85C232.13 12.85 233.74 11.87 233.74 10.11C233.74 6.79 228.77 7.87 228.77 5.32C228.77 4.31 229.56 3.56 230.59 3.56C231.62 3.56 232.71 4.58 232.71 4.89C232.71 5.01 232.67 5.73 232.67 5.78C232.67 5.92 232.71 5.99 232.97 5.99C233.21 5.99 233.23 5.94 233.23 5.75C233.23 5.04 233.31 3.68 233.31 3.53C233.31 3.30 233.27 3.29 233.00 3.29C232.78 3.29 232.76 3.32 232.75 3.53C232.75 3.61 232.74 3.78 232.69 3.78C232.64 3.78 232.55 3.74 232.48 3.68C231.69 3.14 231.07 3.08 230.57 3.08C229.04 3.08 227.53 4.17 227.53 5.77ZM241.92 5.77C241.92 9.07 246.90 8.20 246.90 10.65C246.90 11.59 246.06 12.31 245.08 12.31C244.26 12.31 242.66 11.83 242.63 11.47L242.55 10.15C242.54 9.97 242.47 9.91 242.28 9.91L242.21 9.91C242.00 9.91 242.00 10.00 242.00 10.12C242.00 10.32 242.12 11.66 242.14 12.17C242.16 12.38 243.42 12.85 244.96 12.85C246.53 12.85 248.14 11.87 248.14 10.11C248.14 6.79 243.17 7.87 243.17 5.32C243.17 4.31 243.95 3.56 244.99 3.56C246.01 3.56 247.10 4.58 247.10 4.89C247.10 5.01 247.06 5.73 247.06 5.78C247.06 5.92 247.10 5.99 247.37 5.99C247.60 5.99 247.62 5.94 247.62 5.75C247.62 5.04 247.70 3.68 247.70 3.53C247.70 3.30 247.66 3.29 247.39 3.29C247.17 3.29 247.16 3.32 247.14 3.53C247.14 3.61 247.13 3.78 247.09 3.78C247.03 3.78 246.95 3.74 246.88 3.68C246.08 3.14 245.46 3.08 244.96 3.08C243.43 3.08 241.92 4.17 241.92 5.77ZM255.96 12.39C255.96 12.63 256.00 12.68 256.20 12.68C256.52 12.68 257.28 12.64 257.99 12.64C258.65 12.64 259.45 12.68 259.67 12.68C259.84 12.68 259.87 12.61 259.87 12.40C259.87 12.24 259.84 12.18 259.67 12.18L258.71 12.18C258.61 12.18 258.58 9.55 258.58 7.76L258.58 5.87C258.58 5.14 258.61 3.70 258.71 3.70L259.62 3.70C259.84 3.70 259.87 3.68 259.87 3.49C259.87 3.25 259.84 3.19 259.67 3.19C259.35 3.19 258.68 3.23 258.02 3.23C257.21 3.23 256.49 3.19 256.27 3.19C256.09 3.19 256.02 3.21 256.02 3.44C256.02 3.68 256.10 3.70 256.27 3.70L257.19 3.70C257.24 3.70 257.31 4.79 257.31 5.71L257.31 7.08C257.31 8.92 257.29 12.18 257.18 12.18L256.26 12.18C256.03 12.18 255.96 12.19 255.96 12.39ZM267.83 8.15C267.83 11.17 270.17 12.80 272.43 12.80C275.21 12.80 277.19 10.89 277.19 8.06C277.19 5.33 275.44 3.11 272.64 3.11C270.03 3.11 267.83 5.10 267.83 8.15ZM269.23 7.77C269.23 5.64 270.52 3.58 272.50 3.58C274.74 3.58 275.81 5.81 275.81 7.94C275.81 10.08 274.71 12.32 272.44 12.32C270.45 12.32 269.23 10.28 269.23 7.77ZM285.29 12.39C285.29 12.63 285.31 12.68 285.50 12.68C285.68 12.68 286.06 12.64 286.68 12.64C287.31 12.64 287.87 12.68 288.19 12.68C288.36 12.68 288.36 12.61 288.36 12.40C288.36 12.24 288.36 12.18 288.19 12.18L286.99 12.18C286.94 12.18 286.93 11.54 286.93 10.79C286.93 9.46 286.94 7.48 286.94 5.99C286.94 5.25 286.94 4.84 286.96 4.28C286.96 4.02 287.03 4.14 287.15 4.28L294.04 12.66C294.13 12.75 294.21 12.89 294.32 12.89C294.43 12.89 294.50 12.77 294.50 12.54C294.50 12.39 294.67 6.65 294.69 4.48C294.69 4.06 294.71 3.70 294.74 3.70L295.37 3.70C295.60 3.70 295.65 3.68 295.65 3.49C295.65 3.25 295.65 3.19 295.46 3.19C295.26 3.19 294.83 3.23 294.27 3.23C293.65 3.23 292.85 3.19 292.75 3.19C292.59 3.19 292.59 3.26 292.59 3.47C292.59 3.64 292.59 3.70 292.75 3.70L294.06 3.70C294.07 3.70 294.07 4.33 294.07 4.44C294.07 5.85 294.10 8.33 294.10 9.70L294.10 10.29C294.10 10.57 294.08 10.65 293.86 10.37L288.18 3.39C288.06 3.25 288.04 3.19 287.87 3.19C287.78 3.19 287.41 3.23 287.10 3.23C286.80 3.23 285.73 3.19 285.53 3.19C285.36 3.19 285.33 3.26 285.33 3.47C285.33 3.64 285.36 3.70 285.53 3.70L286.44 3.70C286.44 4.17 286.40 8.53 286.33 10.79C286.30 11.69 286.31 12.18 286.20 12.18L285.56 12.18C285.33 12.18 285.29 12.19 285.29 12.39ZM303.55 12.39C303.55 12.63 303.55 12.68 303.74 12.68C303.91 12.68 304.23 12.64 304.81 12.64C305.42 12.64 305.97 12.68 306.12 12.68C306.29 12.68 306.29 12.61 306.29 12.40C306.29 12.24 306.29 12.18 306.12 12.18L305.05 12.18C305.05 12.18 305.03 12.18 305.03 12.17C305.05 11.87 305.82 9.90 306.17 9.02C306.24 8.83 306.25 8.79 306.46 8.79L309.29 8.79C309.43 8.79 309.43 8.81 309.50 9.03C309.76 9.77 310.48 11.89 310.48 12.17C310.48 12.18 310.46 12.18 310.46 12.18L309.69 12.18C309.47 12.18 309.46 12.19 309.46 12.39C309.46 12.63 309.47 12.68 309.64 12.68C309.96 12.68 310.83 12.64 311.25 12.64C311.67 12.64 312.34 12.68 312.55 12.68C312.69 12.68 312.70 12.61 312.70 12.40C312.70 12.24 312.69 12.18 312.55 12.18L312.06 12.18C311.96 12.18 310.94 9.34 310.38 7.78L308.70 3.07C308.69 3.00 308.62 2.94 308.53 2.94C308.41 2.94 308.31 3.16 308.22 3.35C308.07 3.71 307.83 3.84 307.72 4.13L306.24 7.57C306.05 8.01 304.35 12.18 304.22 12.18L303.80 12.18C303.58 12.18 303.55 12.19 303.55 12.39ZM306.45 8.33C306.45 8.30 306.47 8.23 306.52 8.13L307.89 4.77C307.93 4.66 307.96 4.61 307.99 4.61C308 4.61 308.01 4.63 308.06 4.77L309.22 8.18C309.25 8.25 309.26 8.29 309.26 8.32C309.26 8.36 309.23 8.37 309.13 8.37L306.63 8.37C306.45 8.37 306.45 8.34 306.45 8.33ZM320.46 12.39C320.46 12.63 320.49 12.68 320.68 12.68C321.01 12.68 321.97 12.64 322.39 12.64C322.81 12.64 327.17 12.68 327.49 12.68C327.75 12.68 327.82 12.66 327.84 12.49C327.89 12.08 328.13 10.72 328.13 10.60C328.13 10.47 327.98 10.44 327.81 10.43C327.71 10.42 327.63 10.46 327.61 10.56L327.45 11.76C327.40 12.05 327.39 12.03 327.17 12.04C327.01 12.05 324.51 12.12 323.08 12.12C323.04 12.12 322.99 11.38 322.99 10.54L322.99 6.66C322.99 5.40 323.01 3.70 323.11 3.70L324.09 3.70C324.32 3.70 324.35 3.63 324.35 3.44C324.35 3.23 324.34 3.19 324.10 3.19C323.78 3.19 322.84 3.23 322.42 3.23C322 3.23 321.06 3.19 320.84 3.19C320.61 3.19 320.56 3.22 320.56 3.44C320.56 3.65 320.60 3.70 320.80 3.70L321.62 3.70C321.66 3.70 321.69 4.23 321.69 4.90L321.69 8.13C321.69 10.07 321.66 12.18 321.58 12.18L320.74 12.18C320.52 12.18 320.46 12.21 320.46 12.39ZM335.61 12.39C335.61 12.63 335.65 12.68 335.85 12.68C336.17 12.68 336.92 12.64 337.64 12.64C338.30 12.64 339.09 12.68 339.32 12.68C339.49 12.68 339.51 12.61 339.51 12.40C339.51 12.24 339.49 12.18 339.32 12.18L338.35 12.18C338.25 12.18 338.23 9.55 338.23 7.76L338.23 5.87C338.23 5.14 338.25 3.70 338.35 3.70L339.26 3.70C339.49 3.70 339.51 3.68 339.51 3.49C339.51 3.25 339.49 3.19 339.32 3.19C339.00 3.19 338.32 3.23 337.67 3.23C336.85 3.23 336.14 3.19 335.92 3.19C335.73 3.19 335.66 3.21 335.66 3.44C335.66 3.68 335.75 3.70 335.92 3.70L336.84 3.70C336.88 3.70 336.95 4.79 336.95 5.71L336.95 7.08C336.95 8.92 336.94 12.18 336.83 12.18L335.90 12.18C335.68 12.18 335.61 12.19 335.61 12.39ZM347.62 5.77C347.62 9.07 352.60 8.20 352.60 10.65C352.60 11.59 351.76 12.31 350.78 12.31C349.96 12.31 348.36 11.83 348.33 11.47L348.25 10.15C348.24 9.97 348.17 9.91 347.98 9.91L347.91 9.91C347.70 9.91 347.70 10.00 347.70 10.12C347.70 10.32 347.82 11.66 347.84 12.17C347.86 12.38 349.12 12.85 350.66 12.85C352.23 12.85 353.84 11.87 353.84 10.11C353.84 6.79 348.87 7.87 348.87 5.32C348.87 4.31 349.65 3.56 350.69 3.56C351.71 3.56 352.80 4.58 352.80 4.89C352.80 5.01 352.76 5.73 352.76 5.78C352.76 5.92 352.80 5.99 353.07 5.99C353.30 5.99 353.32 5.94 353.32 5.75C353.32 5.04 353.40 3.68 353.40 3.53C353.40 3.30 353.36 3.29 353.09 3.29C352.87 3.29 352.86 3.32 352.84 3.53C352.84 3.61 352.83 3.78 352.79 3.78C352.73 3.78 352.65 3.74 352.58 3.68C351.78 3.14 351.16 3.08 350.66 3.08C349.13 3.08 347.62 4.17 347.62 5.77ZM361.73 12.39C361.73 12.63 361.76 12.68 361.96 12.68C362.19 12.68 362.70 12.64 363.12 12.64C363.54 12.64 364.03 12.68 364.35 12.68C364.52 12.68 364.55 12.61 364.55 12.40C364.55 12.24 364.52 12.18 364.35 12.18L363.38 12.18C363.33 12.18 363.31 11.54 363.31 10.79C363.31 8.96 363.36 6.13 363.43 4.28C363.45 3.88 363.48 3.91 363.62 4.27L366.88 12.32C366.98 12.54 367.05 12.74 367.16 12.74C367.26 12.74 367.33 12.63 367.42 12.45C367.75 11.79 367.93 11.75 368.20 11.09L370.79 4.47C370.92 4.16 370.96 4.02 370.97 4.47C371 5.66 371.04 8.47 371.04 9.74C371.04 10.99 371 12.18 370.94 12.18L370.31 12.18C370.09 12.18 370.02 12.19 370.02 12.39C370.02 12.63 370.05 12.68 370.24 12.68C370.44 12.68 371.14 12.64 371.74 12.64C372.16 12.64 372.92 12.68 373.24 12.68C373.41 12.68 373.44 12.61 373.44 12.40C373.44 12.22 373.38 12.18 373.21 12.18L372.48 12.18C372.37 12.18 372.27 8.44 372.27 6.03L372.27 4.77C372.27 4.17 372.30 3.77 372.34 3.70L373.00 3.70C373.23 3.70 373.27 3.68 373.27 3.49C373.27 3.25 373.25 3.19 373.06 3.19C372.74 3.19 372.05 3.23 371.63 3.23L370.96 3.23C370.73 3.23 370.71 3.29 370.59 3.58L367.85 10.72C367.77 10.95 367.74 11.02 367.63 10.74L364.69 3.40C364.62 3.22 364.56 3.19 364.42 3.19C364.34 3.19 363.85 3.23 363.54 3.23C363.03 3.23 362.18 3.19 361.98 3.19C361.84 3.19 361.84 3.26 361.84 3.47C361.84 3.64 361.84 3.70 361.98 3.70L362.68 3.70C362.95 3.70 362.95 3.72 362.95 3.84C362.95 4.82 362.74 9.94 362.70 10.79C362.66 11.55 362.66 12.18 362.60 12.18L362.03 12.18C361.80 12.18 361.73 12.19 361.73 12.39Z"></path></g></svg>