<svg data-v-423bf9ae="" xmlns="http://www.w3.org/2000/svg" viewBox="0 0 335.128728071187 60" class="font"><!----><!----><!----><g data-v-423bf9ae="" id="ceac9cbc-5c24-40f7-a6a1-187f9f663052" fill="black" transform="matrix(5.804434890511622,0,0,5.804434890511622,-0.8513185309659264,-16.13632859113752)"><path d="M6.65 4.65L6.65 4.65L6.65 4.65Q6.55 4.68 6.31 4.70L6.31 4.70L6.31 4.70Q6.06 4.73 5.73 4.75L5.73 4.75L5.73 4.75Q5.39 4.77 4.97 4.80L4.97 4.80L4.97 4.80Q4.55 4.83 4.10 4.84L4.10 4.84L4.10 4.84Q4.09 5.31 4.07 5.86L4.07 5.86L4.07 5.86Q4.06 6.41 4.05 6.99L4.05 6.99L4.05 6.99Q4.03 7.56 4.03 8.11L4.03 8.11L4.03 8.11Q4.02 8.67 4.02 9.10L4.02 9.10L4.02 9.10Q4.02 9.65 4.03 10.19L4.03 10.19L4.03 10.19Q4.05 10.74 4.06 11.28L4.06 11.28L4.06 11.28Q4.06 11.47 4.08 11.66L4.08 11.66L4.08 11.66Q4.10 11.84 4.09 12.03L4.09 12.03L4.09 12.03Q4.06 12.21 4.08 12.40L4.08 12.40L4.08 12.40Q4.10 12.59 4.05 12.75L4.05 12.75L4.05 12.75Q4.02 12.77 3.91 12.80L3.91 12.80L3.91 12.80Q3.81 12.84 3.69 12.87L3.69 12.87L3.69 12.87Q3.57 12.89 3.46 12.92L3.46 12.92L3.46 12.92Q3.36 12.95 3.33 12.95L3.33 12.95L3.33 12.95Q3.12 13.03 2.91 12.94L2.91 12.94L2.91 12.94Q2.70 12.84 2.67 12.77L2.67 12.77L2.67 12.77Q2.56 12.53 2.51 11.96L2.51 11.96L2.51 11.96Q2.45 11.40 2.44 10.65L2.44 10.65L2.44 10.65Q2.44 9.90 2.46 9.04L2.46 9.04L2.46 9.04Q2.48 8.19 2.51 7.40L2.51 7.40L2.51 7.40Q2.55 6.61 2.59 5.94L2.59 5.94L2.59 5.94Q2.63 5.28 2.66 4.90L2.66 4.90L2.66 4.90Q1.89 4.93 1.27 4.94L1.27 4.94L1.27 4.94Q0.64 4.96 0.41 4.97L0.41 4.97L0.41 4.97Q0.18 4.79 0.16 4.50L0.16 4.50L0.16 4.50Q0.14 4.21 0.15 3.79L0.15 3.79L0.15 3.79Q0.24 3.68 0.62 3.62L0.62 3.62L0.62 3.62Q0.99 3.56 1.45 3.53L1.45 3.53L1.45 3.53Q1.90 3.50 2.33 3.49L2.33 3.49L2.33 3.49Q2.76 3.49 2.93 3.47L2.93 3.47L2.93 3.47Q3.26 3.46 3.75 3.43L3.75 3.43L3.75 3.43Q4.23 3.40 4.74 3.39L4.74 3.39L4.74 3.39Q5.25 3.37 5.73 3.37L5.73 3.37L5.73 3.37Q6.22 3.37 6.54 3.40L6.54 3.40L6.54 3.40Q6.62 3.47 6.66 3.67L6.66 3.67L6.66 3.67Q6.69 3.86 6.70 4.07L6.70 4.07L6.70 4.07Q6.71 4.28 6.69 4.46L6.69 4.46L6.69 4.46Q6.68 4.63 6.65 4.65ZM12.17 12.56L12.17 12.56L12.17 12.56Q12.07 12.57 11.97 12.58L11.97 12.58L11.97 12.58Q11.87 12.59 11.77 12.61L11.77 12.61L11.77 12.61Q11.58 12.68 11.41 12.66L11.41 12.66L11.41 12.66Q11.24 12.63 11.09 12.56L11.09 12.56L11.09 12.56Q11.10 12.05 11.12 11.68L11.12 11.68L11.12 11.68Q11.13 11.30 11.16 10.79L11.16 10.79L11.16 10.79Q11.17 10.50 11.16 10.19L11.16 10.19L11.16 10.19Q11.16 9.87 11.12 9.58L11.12 9.58L11.12 9.58Q11.00 8.89 10.68 8.67L10.68 8.67L10.68 8.67Q10.35 8.46 9.97 8.55L9.97 8.55L9.97 8.55Q9.60 8.64 9.28 8.95L9.28 8.95L9.28 8.95Q8.96 9.27 8.88 9.63L8.88 9.63L8.88 9.63Q8.71 10.35 8.69 11.07L8.69 11.07L8.69 11.07Q8.68 11.80 8.68 12.52L8.68 12.52L8.68 12.85L8.68 12.85Q8.57 12.85 8.40 12.87L8.40 12.87L8.40 12.87Q8.23 12.88 8.06 12.88L8.06 12.88L8.06 12.88Q7.90 12.88 7.76 12.83L7.76 12.83L7.76 12.83Q7.62 12.78 7.57 12.66L7.57 12.66L7.57 12.66Q7.57 12.57 7.58 12.01L7.58 12.01L7.58 12.01Q7.59 11.45 7.59 10.64L7.59 10.64L7.59 10.64Q7.59 9.83 7.59 8.87L7.59 8.87L7.59 8.87Q7.60 7.91 7.60 7.03L7.60 7.03L7.60 7.03Q7.60 6.27 7.59 5.65L7.59 5.65L7.59 5.65Q7.57 5.03 7.57 4.56L7.57 4.56L7.57 4.56Q7.56 4.10 7.56 3.84L7.56 3.84L7.56 3.84Q7.56 3.57 7.59 3.54L7.59 3.54L7.59 3.54Q7.60 3.51 7.67 3.50L7.67 3.50L7.67 3.50Q7.74 3.49 7.83 3.48L7.83 3.48L7.83 3.48Q7.91 3.47 7.98 3.47L7.98 3.47L7.98 3.47Q8.05 3.47 8.09 3.46L8.09 3.46L8.09 3.46Q8.16 3.40 8.34 3.46L8.34 3.46L8.34 3.46Q8.51 3.51 8.60 3.51L8.60 3.51L8.60 3.51Q8.61 3.58 8.62 3.94L8.62 3.94L8.62 3.94Q8.64 4.30 8.64 4.80L8.64 4.80L8.64 4.80Q8.65 5.31 8.65 5.89L8.65 5.89L8.65 5.89Q8.65 6.48 8.66 6.99L8.66 6.99L8.66 6.99Q8.67 7.50 8.67 7.87L8.67 7.87L8.67 7.87Q8.67 8.23 8.67 8.32L8.67 8.32L8.67 8.32Q9.02 7.91 9.50 7.61L9.50 7.61L9.50 7.61Q9.98 7.31 10.46 7.25L10.46 7.25L10.46 7.25Q10.95 7.20 11.38 7.43L11.38 7.43L11.38 7.43Q11.82 7.67 12.08 8.33L12.08 8.33L12.08 8.33Q12.35 8.99 12.37 9.72L12.37 9.72L12.37 9.72Q12.39 10.46 12.38 11.14L12.38 11.14L12.38 11.14Q12.38 11.30 12.37 11.49L12.37 11.49L12.37 11.49Q12.36 11.68 12.34 11.87L12.34 11.87L12.34 11.87Q12.32 12.07 12.28 12.25L12.28 12.25L12.28 12.25Q12.24 12.43 12.17 12.56ZM14.71 4.93L14.71 4.93L14.71 4.93Q14.98 5.07 15.07 5.31L15.07 5.31L15.07 5.31Q15.16 5.54 15.11 5.79L15.11 5.79L15.11 5.79Q15.05 6.03 14.88 6.22L14.88 6.22L14.88 6.22Q14.70 6.41 14.43 6.45L14.43 6.45L14.43 6.45Q14.06 6.51 13.82 6.32L13.82 6.32L13.82 6.32Q13.59 6.13 13.54 5.86L13.54 5.86L13.54 5.86Q13.50 5.59 13.63 5.30L13.63 5.30L13.63 5.30Q13.76 5.01 14.13 4.86L14.13 4.86L14.13 4.86Q14.32 4.77 14.46 4.82L14.46 4.82L14.46 4.82Q14.60 4.87 14.71 4.93ZM13.76 8.22L13.76 8.22L13.76 8.22Q13.76 8.09 13.78 7.88L13.78 7.88L13.78 7.88Q13.79 7.66 13.80 7.57L13.80 7.57L13.80 7.57Q13.89 7.57 14.11 7.55L14.11 7.55L14.11 7.55Q14.32 7.52 14.41 7.55L14.41 7.55L14.41 7.55Q14.55 7.56 14.69 7.60L14.69 7.60L14.69 7.60Q14.83 7.64 14.94 7.66L14.94 7.66L14.94 7.66Q14.97 7.78 14.98 8.16L14.98 8.16L14.98 8.16Q14.99 8.53 14.99 9.02L14.99 9.02L14.99 9.02Q14.99 9.51 14.99 10.06L14.99 10.06L14.99 10.06Q14.98 10.61 14.97 11.11L14.97 11.11L14.97 11.11Q14.95 11.61 14.94 11.98L14.94 11.98L14.94 11.98Q14.92 12.35 14.91 12.47L14.91 12.47L14.91 12.47Q14.90 12.60 14.72 12.65L14.72 12.65L14.72 12.65Q14.55 12.70 14.34 12.71L14.34 12.71L14.34 12.71Q14.13 12.71 13.93 12.69L13.93 12.69L13.93 12.69Q13.73 12.67 13.68 12.67L13.68 12.67L13.68 12.67Q13.68 12.54 13.69 12.20L13.69 12.20L13.69 12.20Q13.69 11.86 13.71 11.40L13.71 11.40L13.71 11.40Q13.72 10.93 13.73 10.42L13.73 10.42L13.73 10.42Q13.73 9.91 13.75 9.46L13.75 9.46L13.75 9.46Q13.76 9.00 13.76 8.67L13.76 8.67L13.76 8.67Q13.76 8.33 13.76 8.22ZM20.97 12.66L20.97 12.66L20.97 12.66Q20.87 12.67 20.78 12.68L20.78 12.68L20.78 12.68Q20.68 12.70 20.59 12.73L20.59 12.73L20.59 12.73Q20.22 12.84 19.89 12.66L19.89 12.66L19.89 12.66Q19.92 11.66 19.98 10.65L19.98 10.65L19.98 10.65Q19.99 10.36 19.98 10.04L19.98 10.04L19.98 10.04Q19.96 9.73 19.92 9.44L19.92 9.44L19.92 9.44Q19.81 8.75 19.48 8.53L19.48 8.53L19.48 8.53Q19.15 8.32 18.78 8.41L18.78 8.41L18.78 8.41Q18.41 8.50 18.09 8.81L18.09 8.81L18.09 8.81Q17.78 9.13 17.70 9.49L17.70 9.49L17.70 9.49Q17.53 10.21 17.51 10.93L17.51 10.93L17.51 10.93Q17.49 11.66 17.49 12.38L17.49 12.38L17.49 12.71L17.49 12.71Q17.37 12.71 17.21 12.73L17.21 12.73L17.21 12.73Q17.04 12.74 16.87 12.74L16.87 12.74L16.87 12.74Q16.70 12.74 16.57 12.69L16.57 12.69L16.57 12.69Q16.44 12.64 16.38 12.52L16.38 12.52L16.38 12.52Q16.38 12.40 16.38 11.99L16.38 11.99L16.38 11.99Q16.38 11.58 16.37 11.02L16.37 11.02L16.37 11.02Q16.37 10.46 16.37 9.84L16.37 9.84L16.37 9.84Q16.37 9.21 16.37 8.67L16.37 8.67L16.37 8.67Q16.38 8.13 16.40 7.77L16.40 7.77L16.40 7.77Q16.42 7.41 16.46 7.36L16.46 7.36L16.46 7.36Q16.48 7.34 16.55 7.32L16.55 7.32L16.55 7.32Q16.62 7.31 16.70 7.30L16.70 7.30L16.70 7.30Q16.79 7.29 16.86 7.29L16.86 7.29L16.86 7.29Q16.93 7.29 16.97 7.28L16.97 7.28L16.97 7.28Q17.04 7.22 17.15 7.25L17.15 7.25L17.15 7.25Q17.26 7.28 17.33 7.28L17.33 7.28L17.33 7.28Q17.40 7.48 17.44 7.71L17.44 7.71L17.44 7.71Q17.47 7.94 17.47 8.18L17.47 8.18L17.47 8.18Q17.84 7.77 18.32 7.47L18.32 7.47L18.32 7.47Q18.80 7.17 19.29 7.11L19.29 7.11L19.29 7.11Q19.77 7.04 20.20 7.28L20.20 7.28L20.20 7.28Q20.64 7.52 20.90 8.19L20.90 8.19L20.90 8.19Q21.17 8.85 21.19 9.58L21.19 9.58L21.19 9.58Q21.21 10.30 21.20 11.00L21.20 11.00L21.20 11.00Q21.20 11.14 21.19 11.38L21.19 11.38L21.19 11.38Q21.18 11.61 21.15 11.84L21.15 11.84L21.15 11.84Q21.13 12.08 21.08 12.31L21.08 12.31L21.08 12.31Q21.04 12.53 20.97 12.66ZM25.48 9.11L25.48 9.11L25.48 9.11Q25.59 9.39 25.88 9.76L25.88 9.76L25.88 9.76Q26.17 10.12 26.52 10.51L26.52 10.51L26.52 10.51Q26.87 10.91 27.21 11.27L27.21 11.27L27.21 11.27Q27.55 11.63 27.78 11.90L27.78 11.90L27.78 11.90Q27.85 11.98 27.92 12.05L27.92 12.05L27.92 12.05Q28 12.12 28.04 12.21L28.04 12.21L28.04 12.21Q28.01 12.29 27.90 12.37L27.90 12.37L27.90 12.37Q27.79 12.45 27.72 12.49L27.72 12.49L27.72 12.49Q27.65 12.54 27.53 12.61L27.53 12.61L27.53 12.61Q27.41 12.67 27.31 12.67L27.31 12.67L27.31 12.67Q26.94 12.67 26.56 12.33L26.56 12.33L26.56 12.33Q26.19 11.98 25.84 11.54L25.84 11.54L25.84 11.54Q25.48 11.10 25.12 10.68L25.12 10.68L25.12 10.68Q24.77 10.25 24.39 10.09L24.39 10.09L24.39 10.09Q24.15 10.18 23.96 10.34L23.96 10.34L23.96 10.34Q23.77 10.50 23.70 10.67L23.70 10.67L23.74 12.19L23.74 12.19Q23.74 12.42 23.70 12.52L23.70 12.52L23.70 12.52Q23.65 12.61 23.55 12.64L23.55 12.64L23.55 12.64Q23.45 12.67 23.31 12.65L23.31 12.65L23.31 12.65Q23.17 12.63 23.02 12.60L23.02 12.60L23.02 12.60Q22.89 12.57 22.76 12.56L22.76 12.56L22.76 12.56Q22.64 12.54 22.55 12.43L22.55 12.43L22.55 12.43Q22.47 11.90 22.52 11.37L22.52 11.37L22.52 11.37Q22.57 10.84 22.54 10.30L22.54 10.30L22.54 10.30Q22.50 9.38 22.50 8.48L22.50 8.48L22.50 8.48Q22.51 7.57 22.54 6.65L22.54 6.65L22.54 6.65Q22.55 5.84 22.58 5.03L22.58 5.03L22.58 5.03Q22.61 4.23 22.72 3.43L22.72 3.43L22.72 3.43Q22.93 3.37 23.10 3.26L23.10 3.26L23.10 3.26Q23.27 3.26 23.41 3.26L23.41 3.26L23.41 3.26Q23.56 3.26 23.70 3.39L23.70 3.39L23.70 3.39Q23.74 3.51 23.76 3.91L23.76 3.91L23.76 3.91Q23.77 4.31 23.77 4.86L23.77 4.86L23.77 4.86Q23.77 5.40 23.77 6.03L23.77 6.03L23.77 6.03Q23.76 6.66 23.74 7.25L23.74 7.25L23.74 7.25Q23.73 7.83 23.72 8.29L23.72 8.29L23.72 8.29Q23.72 8.76 23.72 9.00L23.72 9.00L23.72 9.00Q23.83 8.97 24.07 8.79L24.07 8.79L24.07 8.79Q24.30 8.60 24.61 8.34L24.61 8.34L24.61 8.34Q24.91 8.08 25.24 7.79L25.24 7.79L25.24 7.79Q25.58 7.50 25.89 7.25L25.89 7.25L25.89 7.25Q26.19 7 26.44 6.83L26.44 6.83L26.44 6.83Q26.68 6.66 26.82 6.66L26.82 6.66L26.82 6.66Q26.87 6.66 26.94 6.72L26.94 6.72L26.94 6.72Q27.02 6.78 27.11 6.86L27.11 6.86L27.11 6.86Q27.20 6.94 27.28 7.06L27.28 7.06L27.28 7.06Q27.36 7.17 27.38 7.29L27.38 7.29L27.38 7.29Q27.36 7.36 27.10 7.62L27.10 7.62L27.10 7.62Q26.85 7.87 26.52 8.17L26.52 8.17L26.52 8.17Q26.19 8.47 25.89 8.74L25.89 8.74L25.89 8.74Q25.59 9.02 25.48 9.11ZM33.67 12.19L33.67 12.19L33.67 12.19Q33.61 12.25 33.50 12.35L33.50 12.35L33.50 12.35Q33.39 12.45 33.32 12.49L33.32 12.49L33.32 12.49Q32.54 12.96 31.67 13.08L31.67 13.08L31.67 13.08Q30.80 13.20 30.06 12.93L30.06 12.93L30.06 12.93Q29.32 12.66 28.83 11.97L28.83 11.97L28.83 11.97Q28.35 11.28 28.35 10.15L28.35 10.15L28.35 10.15Q28.35 9.53 28.56 8.99L28.56 8.99L28.56 8.99Q28.77 8.44 29.15 7.97L29.15 7.97L29.15 7.97Q29.53 7.49 30.09 7.17L30.09 7.17L30.09 7.17Q30.66 6.86 31.26 6.80L31.26 6.80L31.26 6.80Q31.86 6.73 32.42 6.95L32.42 6.95L32.42 6.95Q32.97 7.17 33.33 7.74L33.33 7.74L33.33 7.74Q33.47 7.97 33.56 8.23L33.56 8.23L33.56 8.23Q33.64 8.48 33.66 8.75L33.66 8.75L33.66 8.75Q33.67 8.89 33.68 9.06L33.68 9.06L33.68 9.06Q33.70 9.23 33.67 9.37L33.67 9.37L33.67 9.37Q33.60 9.67 33.50 9.94L33.50 9.94L33.50 9.94Q33.46 10.05 33.25 10.13L33.25 10.13L33.25 10.13Q33.04 10.21 32.79 10.25L32.79 10.25L32.79 10.25Q32.54 10.29 32.30 10.31L32.30 10.31L32.30 10.31Q32.06 10.33 31.96 10.35L31.96 10.35L31.96 10.35Q31.40 10.40 30.85 10.42L30.85 10.42L30.85 10.42Q30.30 10.44 29.74 10.46L29.74 10.46L29.65 10.51L29.65 10.51Q29.61 10.67 29.65 10.82L29.65 10.82L29.65 10.82Q29.69 11.19 29.92 11.41L29.92 11.41L29.92 11.41Q30.14 11.63 30.44 11.76L30.44 11.76L30.44 11.76Q30.73 11.89 31.07 11.94L31.07 11.94L31.07 11.94Q31.40 11.98 31.68 11.98L31.68 11.98L31.68 11.98Q31.91 11.96 32.08 11.91L32.08 11.91L32.08 11.91Q32.26 11.87 32.44 11.77L32.44 11.77L32.44 11.77Q32.62 11.66 32.84 11.47L32.84 11.47L32.84 11.47Q33.05 11.28 33.36 10.96L33.36 10.96L33.36 10.96Q33.39 10.95 33.49 11.07L33.49 11.07L33.49 11.07Q33.59 11.20 33.69 11.36L33.69 11.36L33.69 11.36Q33.80 11.52 33.89 11.67L33.89 11.67L33.89 11.67Q33.98 11.82 33.99 11.84L33.99 11.84L33.99 11.84Q33.96 11.93 33.85 12.03L33.85 12.03L33.85 12.03Q33.74 12.14 33.67 12.19ZM32.58 9.37L32.58 9.37L32.58 9.37Q32.63 9.32 32.65 9.25L32.65 9.25L32.65 9.25Q32.68 9.18 32.68 9.11L32.68 9.11L32.68 9.11Q32.70 8.93 32.65 8.69L32.65 8.69L32.65 8.69Q32.59 8.44 32.49 8.29L32.49 8.29L32.49 8.29Q32.23 7.84 31.78 7.76L31.78 7.76L31.78 7.76Q31.33 7.67 30.88 7.86L30.88 7.86L30.88 7.86Q30.42 8.05 30.07 8.46L30.07 8.46L30.07 8.46Q29.72 8.86 29.67 9.41L29.67 9.41L29.67 9.41Q29.74 9.49 29.85 9.52L29.85 9.52L29.85 9.52Q29.88 9.53 30.07 9.53L30.07 9.53L30.07 9.53Q30.27 9.52 30.55 9.51L30.55 9.51L30.55 9.51Q30.84 9.49 31.18 9.47L31.18 9.47L31.18 9.47Q31.51 9.45 31.81 9.44L31.81 9.44L31.81 9.44Q32.10 9.42 32.32 9.40L32.32 9.40L32.32 9.40Q32.54 9.38 32.58 9.37ZM38.88 7.92L38.88 7.92L38.88 7.92Q38.77 7.94 38.67 7.93L38.67 7.93L38.67 7.93Q38.57 7.92 38.47 7.92L38.47 7.92L38.47 7.92Q38.44 7.91 38.37 7.91L38.37 7.91L38.37 7.91Q38.29 7.91 38.26 7.92L38.26 7.92L38.26 7.92Q37.88 8.02 37.56 8.23L37.56 8.23L37.56 8.23Q37.24 8.44 36.98 8.71L36.98 8.71L36.98 8.71Q36.72 8.99 36.53 9.29L36.53 9.29L36.53 9.29Q36.33 9.59 36.20 9.86L36.20 9.86L36.20 9.86Q36.20 10.09 36.21 10.49L36.21 10.49L36.21 10.49Q36.22 10.88 36.22 11.29L36.22 11.29L36.22 11.29Q36.22 11.70 36.20 12.08L36.20 12.08L36.20 12.08Q36.19 12.45 36.15 12.66L36.15 12.66L36.15 12.66Q36.12 12.78 35.96 12.83L35.96 12.83L35.96 12.83Q35.80 12.88 35.60 12.89L35.60 12.89L35.60 12.89Q35.41 12.89 35.21 12.88L35.21 12.88L35.21 12.88Q35.01 12.87 34.92 12.85L34.92 12.85L34.92 12.85Q34.92 11.49 34.94 10.16L34.94 10.16L34.94 10.16Q34.96 8.82 34.96 7.46L34.96 7.46L34.96 7.46Q34.96 7.31 34.97 7.15L34.97 7.15L34.97 7.15Q34.99 6.99 35 6.82L35 6.82L35 6.82Q35.13 6.82 35.31 6.79L35.31 6.79L35.31 6.79Q35.49 6.76 35.60 6.79L35.60 6.79L35.60 6.79Q35.77 6.83 35.90 6.94L35.90 6.94L35.90 6.94Q36.04 7.04 36.16 7.28L36.16 7.28L36.16 7.28Q36.20 7.46 36.20 7.66L36.20 7.66L36.20 7.66Q36.20 7.85 36.22 8.04L36.22 8.04L36.23 8.04L36.23 8.04Q36.43 7.85 36.65 7.63L36.65 7.63L36.65 7.63Q36.86 7.41 37.17 7.23L37.17 7.23L37.17 7.23Q37.48 7.06 37.90 6.97L37.90 6.97L37.90 6.97Q38.32 6.89 38.92 6.99L38.92 6.99L38.92 6.99Q38.99 7.04 39.00 7.17L39.00 7.17L39.00 7.17Q39.02 7.31 39.00 7.46L39.00 7.46L39.00 7.46Q38.98 7.60 38.94 7.74L38.94 7.74L38.94 7.74Q38.91 7.87 38.88 7.92ZM40.47 12.77L40.47 12.77L40.47 12.77Q40.45 12.36 40.43 11.75L40.43 11.75L40.43 11.75Q40.42 11.14 40.42 10.46L40.42 10.46L40.42 10.46Q40.42 9.77 40.41 9.09L40.41 9.09L40.41 9.09Q40.40 8.40 40.40 7.83L40.40 7.83L40.39 5.43L40.39 5.43Q40.39 5.49 40.38 5.34L40.38 5.34L40.38 5.34Q40.38 5.19 40.37 4.94L40.37 4.94L40.37 4.94Q40.36 4.68 40.38 4.35L40.38 4.35L40.38 4.35Q40.39 4.03 40.42 3.75L40.42 3.75L40.42 3.75Q40.45 3.46 40.51 3.26L40.51 3.26L40.51 3.26Q40.57 3.05 40.67 3.01L40.67 3.01L40.67 3.01Q40.81 2.94 40.89 2.93L40.89 2.93L40.89 2.93Q40.96 2.91 41.13 2.91L41.13 2.91L41.13 2.91Q41.33 2.91 41.55 2.86L41.55 2.86L41.55 2.86Q41.78 2.81 41.97 2.81L41.97 2.81L41.97 2.81Q42.17 2.81 42.37 2.79L42.37 2.79L42.37 2.79Q42.57 2.77 42.77 2.79L42.77 2.79L42.77 2.79Q43.09 2.80 43.44 2.83L43.44 2.83L43.44 2.83Q43.78 2.86 44.07 2.88L44.07 2.88L44.07 2.88Q44.56 2.94 44.97 3.20L44.97 3.20L44.97 3.20Q45.37 3.46 45.70 3.79L45.70 3.79L45.70 3.79Q46.03 4.14 46.26 4.56L46.26 4.56L46.26 4.56Q46.49 4.98 46.56 5.47L46.56 5.47L46.56 5.47Q46.56 5.53 46.58 5.57L46.58 5.57L46.58 5.57Q46.59 5.61 46.61 5.67L46.61 5.67L46.61 5.67Q46.62 5.71 46.61 5.80L46.61 5.80L46.61 5.80Q46.61 5.88 46.60 5.98L46.60 5.98L46.60 5.98Q46.59 6.08 46.58 6.17L46.58 6.17L46.58 6.17Q46.56 6.27 46.56 6.31L46.56 6.31L46.56 6.31Q46.52 6.72 46.33 7.09L46.33 7.09L46.33 7.09Q46.14 7.46 45.86 7.78L45.86 7.78L45.86 7.78Q45.58 8.09 45.24 8.34L45.24 8.34L45.24 8.34Q44.90 8.60 44.55 8.76L44.55 8.76L44.55 8.76Q44.10 8.97 43.67 9.07L43.67 9.07L43.67 9.07Q43.23 9.16 42.87 9.18L42.87 9.18L42.87 9.18Q42.50 9.21 42.23 9.21L42.23 9.21L42.23 9.21Q41.96 9.20 41.83 9.21L41.83 9.21L41.83 9.21Q41.82 9.21 41.82 9.41L41.82 9.41L41.82 9.41Q41.82 9.60 41.83 9.91L41.83 9.91L41.83 9.91Q41.83 10.21 41.85 10.56L41.85 10.56L41.85 10.56Q41.86 10.92 41.87 11.24L41.87 11.24L41.87 11.24Q41.87 11.56 41.89 11.80L41.89 11.80L41.89 11.80Q41.90 12.04 41.92 12.10L41.92 12.10L41.92 12.10Q41.92 12.12 41.92 12.22L41.92 12.22L41.92 12.22Q41.93 12.32 41.93 12.43L41.93 12.43L41.93 12.43Q41.93 12.53 41.92 12.62L41.92 12.62L41.92 12.62Q41.92 12.71 41.90 12.73L41.90 12.73L41.90 12.73Q41.87 12.85 41.69 12.91L41.69 12.91L41.69 12.91Q41.51 12.96 41.27 12.96L41.27 12.96L41.27 12.96Q41.03 12.96 40.80 12.91L40.80 12.91L40.80 12.91Q40.57 12.85 40.47 12.77ZM42.69 4.09L42.67 4.10L42.67 4.10Q42.48 4.10 42.27 4.14L42.27 4.14L42.27 4.14Q42.07 4.17 41.87 4.23L41.87 4.23L41.87 4.23Q41.79 4.45 41.77 4.70L41.77 4.70L41.77 4.70Q41.75 4.96 41.75 5.22L41.75 5.22L41.75 5.22Q41.75 5.49 41.76 5.75L41.76 5.75L41.76 5.75Q41.76 6.02 41.76 6.26L41.76 6.26L41.76 7.18L41.76 7.18Q41.76 7.22 41.76 7.32L41.76 7.32L41.76 7.32Q41.76 7.41 41.76 7.51L41.76 7.51L41.76 7.51Q41.76 7.62 41.76 7.73L41.76 7.73L41.76 7.73Q41.76 7.84 41.78 7.92L41.78 7.92L41.78 7.92Q42.31 7.99 42.74 7.95L42.74 7.95L42.74 7.95Q43.18 7.90 43.53 7.76L43.53 7.76L43.53 7.76Q43.88 7.63 44.16 7.43L44.16 7.43L44.16 7.43Q44.45 7.24 44.70 7.03L44.70 7.03L44.70 7.03Q45.15 6.64 45.24 6.12L45.24 6.12L45.24 6.12Q45.33 5.60 45.14 5.15L45.14 5.15L45.14 5.15Q44.95 4.70 44.51 4.39L44.51 4.39L44.51 4.39Q44.06 4.07 43.43 4.07L43.43 4.07L43.43 4.07Q43.25 4.07 43.06 4.07L43.06 4.07L43.06 4.07Q42.88 4.07 42.69 4.09L42.69 4.09ZM51.41 12.19L51.41 12.19L51.41 12.19Q51.35 12.25 51.24 12.35L51.24 12.35L51.24 12.35Q51.13 12.45 51.06 12.49L51.06 12.49L51.06 12.49Q50.27 12.96 49.41 13.08L49.41 13.08L49.41 13.08Q48.54 13.20 47.80 12.93L47.80 12.93L47.80 12.93Q47.05 12.66 46.57 11.97L46.57 11.97L46.57 11.97Q46.09 11.28 46.09 10.15L46.09 10.15L46.09 10.15Q46.09 9.53 46.30 8.99L46.30 8.99L46.30 8.99Q46.51 8.44 46.89 7.97L46.89 7.97L46.89 7.97Q47.26 7.49 47.83 7.17L47.83 7.17L47.83 7.17Q48.40 6.86 49 6.80L49 6.80L49 6.80Q49.60 6.73 50.16 6.95L50.16 6.95L50.16 6.95Q50.71 7.17 51.07 7.74L51.07 7.74L51.07 7.74Q51.21 7.97 51.30 8.23L51.30 8.23L51.30 8.23Q51.38 8.48 51.39 8.75L51.39 8.75L51.39 8.75Q51.41 8.89 51.42 9.06L51.42 9.06L51.42 9.06Q51.44 9.23 51.41 9.37L51.41 9.37L51.41 9.37Q51.34 9.67 51.24 9.94L51.24 9.94L51.24 9.94Q51.20 10.05 50.99 10.13L50.99 10.13L50.99 10.13Q50.78 10.21 50.53 10.25L50.53 10.25L50.53 10.25Q50.27 10.29 50.04 10.31L50.04 10.31L50.04 10.31Q49.80 10.33 49.70 10.35L49.70 10.35L49.70 10.35Q49.14 10.40 48.59 10.42L48.59 10.42L48.59 10.42Q48.03 10.44 47.47 10.46L47.47 10.46L47.39 10.51L47.39 10.51Q47.35 10.67 47.39 10.82L47.39 10.82L47.39 10.82Q47.43 11.19 47.66 11.41L47.66 11.41L47.66 11.41Q47.88 11.63 48.17 11.76L48.17 11.76L48.17 11.76Q48.47 11.89 48.80 11.94L48.80 11.94L48.80 11.94Q49.14 11.98 49.42 11.98L49.42 11.98L49.42 11.98Q49.64 11.96 49.82 11.91L49.82 11.91L49.82 11.91Q49.99 11.87 50.18 11.77L50.18 11.77L50.18 11.77Q50.36 11.66 50.58 11.47L50.58 11.47L50.58 11.47Q50.79 11.28 51.10 10.96L51.10 10.96L51.10 10.96Q51.13 10.95 51.23 11.07L51.23 11.07L51.23 11.07Q51.32 11.20 51.43 11.36L51.43 11.36L51.43 11.36Q51.53 11.52 51.63 11.67L51.63 11.67L51.63 11.67Q51.72 11.82 51.73 11.84L51.73 11.84L51.73 11.84Q51.70 11.93 51.59 12.03L51.59 12.03L51.59 12.03Q51.48 12.14 51.41 12.19ZM50.32 9.37L50.32 9.37L50.32 9.37Q50.37 9.32 50.39 9.25L50.39 9.25L50.39 9.25Q50.41 9.18 50.41 9.11L50.41 9.11L50.41 9.11Q50.44 8.93 50.39 8.69L50.39 8.69L50.39 8.69Q50.33 8.44 50.23 8.29L50.23 8.29L50.23 8.29Q49.97 7.84 49.52 7.76L49.52 7.76L49.52 7.76Q49.07 7.67 48.62 7.86L48.62 7.86L48.62 7.86Q48.16 8.05 47.81 8.46L47.81 8.46L47.81 8.46Q47.46 8.86 47.40 9.41L47.40 9.41L47.40 9.41Q47.47 9.49 47.59 9.52L47.59 9.52L47.59 9.52Q47.61 9.53 47.81 9.53L47.81 9.53L47.81 9.53Q48.01 9.52 48.29 9.51L48.29 9.51L48.29 9.51Q48.58 9.49 48.92 9.47L48.92 9.47L48.92 9.47Q49.25 9.45 49.55 9.44L49.55 9.44L49.55 9.44Q49.84 9.42 50.06 9.40L50.06 9.40L50.06 9.40Q50.27 9.38 50.32 9.37ZM57.65 12.66L57.65 12.66L57.65 12.66Q57.55 12.67 57.46 12.68L57.46 12.68L57.46 12.68Q57.36 12.70 57.27 12.73L57.27 12.73L57.27 12.73Q56.90 12.84 56.57 12.66L56.57 12.66L56.57 12.66Q56.60 11.66 56.66 10.65L56.66 10.65L56.66 10.65Q56.67 10.36 56.66 10.04L56.66 10.04L56.66 10.04Q56.64 9.73 56.60 9.44L56.60 9.44L56.60 9.44Q56.49 8.75 56.16 8.53L56.16 8.53L56.16 8.53Q55.83 8.32 55.46 8.41L55.46 8.41L55.46 8.41Q55.09 8.50 54.78 8.81L54.78 8.81L54.78 8.81Q54.46 9.13 54.38 9.49L54.38 9.49L54.38 9.49Q54.21 10.21 54.19 10.93L54.19 10.93L54.19 10.93Q54.17 11.66 54.17 12.38L54.17 12.38L54.17 12.71L54.17 12.71Q54.05 12.71 53.89 12.73L53.89 12.73L53.89 12.73Q53.72 12.74 53.55 12.74L53.55 12.74L53.55 12.74Q53.38 12.74 53.25 12.69L53.25 12.69L53.25 12.69Q53.12 12.64 53.06 12.52L53.06 12.52L53.06 12.52Q53.06 12.40 53.06 11.99L53.06 11.99L53.06 11.99Q53.06 11.58 53.05 11.02L53.05 11.02L53.05 11.02Q53.05 10.46 53.05 9.84L53.05 9.84L53.05 9.84Q53.05 9.21 53.05 8.67L53.05 8.67L53.05 8.67Q53.06 8.13 53.08 7.77L53.08 7.77L53.08 7.77Q53.10 7.41 53.14 7.36L53.14 7.36L53.14 7.36Q53.16 7.34 53.23 7.32L53.23 7.32L53.23 7.32Q53.30 7.31 53.38 7.30L53.38 7.30L53.38 7.30Q53.47 7.29 53.54 7.29L53.54 7.29L53.54 7.29Q53.61 7.29 53.65 7.28L53.65 7.28L53.65 7.28Q53.72 7.22 53.83 7.25L53.83 7.25L53.83 7.25Q53.94 7.28 54.01 7.28L54.01 7.28L54.01 7.28Q54.08 7.48 54.12 7.71L54.12 7.71L54.12 7.71Q54.15 7.94 54.15 8.18L54.15 8.18L54.15 8.18Q54.52 7.77 55.00 7.47L55.00 7.47L55.00 7.47Q55.48 7.17 55.97 7.11L55.97 7.11L55.97 7.11Q56.45 7.04 56.88 7.28L56.88 7.28L56.88 7.28Q57.32 7.52 57.58 8.19L57.58 8.19L57.58 8.19Q57.85 8.85 57.87 9.58L57.87 9.58L57.87 9.58Q57.89 10.30 57.88 11.00L57.88 11.00L57.88 11.00Q57.88 11.14 57.87 11.38L57.87 11.38L57.87 11.38Q57.86 11.61 57.83 11.84L57.83 11.84L57.83 11.84Q57.81 12.08 57.76 12.31L57.76 12.31L57.76 12.31Q57.72 12.53 57.65 12.66Z"></path></g><!----><!----></svg>